<?xml version="1.0" encoding="UTF-8"?>
<svg version="1.1" xmlns="http://www.w3.org/2000/svg" width="655" height="655">
<path d="M0 0 C216.15 0 432.3 0 655 0 C655 216.15 655 432.3 655 655 C438.85 655 222.7 655 0 655 C0 438.85 0 222.7 0 0 Z " fill="#232323" transform="translate(0,0)"/>
<path d="M0 0 C0.495 0.99 0.495 0.99 1 2 C1.99 2.33 2.98 2.66 4 3 C4 3.66 4 4.32 4 5 C4.7321875 5.11730469 5.464375 5.23460937 6.21875 5.35546875 C12.63459616 6.84228703 17.99031504 10.87437709 23 15 C23.99 15.33 24.98 15.66 26 16 C26 16.66 26 17.32 26 18 C27.98 18 29.96 18 32 18 C32.495 19.485 32.495 19.485 33 21 C34.82106927 21.66327051 34.82106927 21.66327051 37 22 C38.56791172 22.46115051 40.13048509 22.94079938 41.6875 23.4375 C42.47511719 23.68371094 43.26273438 23.92992187 44.07421875 24.18359375 C46 25 46 25 47 27 C48.85240164 27.83047008 48.85240164 27.83047008 51 28.5 C53.1875 29.21875 53.1875 29.21875 55 30 C55.495 30.99 55.495 30.99 56 32 C56.83276286 32.42637882 57.66552571 32.85275764 58.52352381 33.29205704 C61 35 61 35 61.62444448 37.40816879 C61.6241721 38.37141193 61.62389972 39.33465508 61.62361908 40.3270874 C61.63542442 41.43893024 61.64722976 42.55077309 61.65939283 43.69630814 C61.64687499 44.92284481 61.63435714 46.14938148 61.62145996 47.41308594 C61.62784878 48.71210217 61.6342376 50.01111839 61.64082003 51.34949875 C61.65786719 54.96287112 61.64359251 58.57555408 61.62430525 62.18889046 C61.60891873 66.08261982 61.62226958 69.97626245 61.63204956 73.86999512 C61.64659967 81.5008121 61.63431855 89.13136366 61.61293632 96.76215553 C61.58896351 105.64235223 61.59063839 114.52248762 61.59324223 123.40270948 C61.59693512 139.24378866 61.57608349 155.0847425 61.54199219 170.92578125 C61.50889908 186.30862598 61.49473357 201.69133914 61.50097656 217.07421875 C61.50773595 233.8119222 61.50529319 250.54957048 61.48561716 267.28726578 C61.48457768 268.1718167 61.48353819 269.05636763 61.4824672 269.96772313 C61.48037626 271.74446275 61.47826528 273.52120235 61.47613403 275.29794192 C61.46922958 281.49269997 61.46857059 287.68744106 61.47001648 293.88220215 C61.47145411 301.42819218 61.46180345 308.97407473 61.43807012 316.52002907 C61.42618522 320.37252268 61.41910141 324.22486621 61.42490768 328.07737732 C61.43100691 332.24737815 61.41396217 336.41695476 61.39440918 340.58691406 C61.39973711 341.81345074 61.40506503 343.03998741 61.41055441 344.30369186 C61.40149777 345.41553471 61.39244113 346.52737755 61.38311005 347.6729126 C61.38075324 349.11777731 61.38075324 349.11777731 61.37834883 350.59183121 C60.93282982 353.4275344 60.23649704 354.26737947 58 356 C56.14648437 357.05908203 56.14648437 357.05908203 54.09375 358.0078125 C53.34996094 358.35457031 52.60617187 358.70132812 51.83984375 359.05859375 C50.68162109 359.58646484 50.68162109 359.58646484 49.5 360.125 C48.72785156 360.48464844 47.95570313 360.84429687 47.16015625 361.21484375 C44.12322606 362.62014767 41.17827905 363.94057365 38 365 C37.67 365.99 37.34 366.98 37 368 C35.35 368.33 33.7 368.66 32 369 C32 369.66 32 370.32 32 371 C31.01 371.391875 30.02 371.78375 29 372.1875 C25.31737497 373.74438213 22.10005452 375.77216304 18.796875 378.01171875 C17 379 17 379 14 379 C14 379.66 14 380.32 14 381 C12.948125 381.37125 11.89625 381.7425 10.8125 382.125 C7.54230259 383.47615941 6.88921136 384.14869002 4.625 387.1875 C2 390 2 390 -0.23828125 390.421875 C-3.46299565 390.44244734 -6.08856479 390.45571761 -9 389 C-9 388.34 -9 387.68 -9 387 C-9.721875 387.103125 -10.44375 387.20625 -11.1875 387.3125 C-14.54670312 386.93925521 -15.18368752 385.88134514 -17.3359375 383.4375 C-20.32966317 380.85137079 -24.0432387 379.60257449 -27.671875 378.11328125 C-30 377 -30 377 -31 375 C-32.80347857 373.82122346 -32.80347857 373.82122346 -35 372.6875 C-35.80953125 372.25050781 -36.6190625 371.81351562 -37.453125 371.36328125 C-38.29359375 370.91339844 -39.1340625 370.46351563 -40 370 C-41.585096 369.1281972 -43.16850297 368.25331463 -44.75 367.375 C-45.4925 366.96378906 -46.235 366.55257813 -47 366.12890625 C-48.60299729 365.22408942 -50.18110239 364.27523262 -51.75 363.3125 C-54.11131951 361.93506362 -56.45852334 361.00476984 -59 360 C-60.40365072 359.3713379 -61.79908371 358.72412798 -63.1875 358.0625 C-63.86167969 357.74410156 -64.53585937 357.42570312 -65.23046875 357.09765625 C-67 356 -67 356 -69 353 C-69.24839699 350.58196718 -69.24839699 350.58196718 -69.24609566 347.64891529 C-69.25007775 346.53173896 -69.25405985 345.41456262 -69.25816262 344.26353246 C-69.25233693 343.03105848 -69.24651125 341.7985845 -69.24050903 340.52876282 C-69.24221788 339.22354634 -69.24392673 337.91832986 -69.24568737 336.57356137 C-69.25017112 332.94319325 -69.24214318 329.31294256 -69.23213124 325.68258941 C-69.22351379 321.77054013 -69.22641569 317.85849775 -69.22793579 313.94644165 C-69.22898572 307.16604855 -69.22269782 300.38569387 -69.21146011 293.60531044 C-69.19522274 283.80195656 -69.18999892 273.9986213 -69.18748413 264.19525542 C-69.18310425 248.29088565 -69.16978723 232.38653637 -69.15087891 216.48217773 C-69.13252767 201.03035586 -69.11836747 185.57853955 -69.10986328 170.12670898 C-69.10933783 169.17464557 -69.10881239 168.22258215 -69.10827102 167.24166832 C-69.10566099 162.46556153 -69.10313356 157.6894547 -69.10064721 152.91334784 C-69.0799056 113.27555088 -69.04467212 73.63777679 -69 34 C-68.195625 33.87625 -67.39125 33.7525 -66.5625 33.625 C-65.716875 33.41875 -64.87125 33.2125 -64 33 C-63.67 32.34 -63.34 31.68 -63 31 C-61.36328125 30.03515625 -61.36328125 30.03515625 -59.3125 29.0625 C-58.58933594 28.71445313 -57.86617188 28.36640625 -57.12109375 28.0078125 C-56.42113281 27.67523438 -55.72117187 27.34265625 -55 27 C-53.96875 26.484375 -52.9375 25.96875 -51.875 25.4375 C-49.84972567 24.42486284 -47.80591562 23.44888413 -45.75 22.5 C-42.76204931 21.14664403 -42.76204931 21.14664403 -41 18 C-38.375 17.3125 -38.375 17.3125 -36 17 C-36 16.34 -36 15.68 -36 15 C-31.444322 11.87610652 -27.54891125 10 -22 10 C-22 9.34 -22 8.68 -22 8 C-21.01 7.67 -20.02 7.34 -19 7 C-18.67 6.34 -18.34 5.68 -18 5 C-16.35008418 4.29289322 -14.6792238 3.63437344 -13 3 C-12.05125 2.46375 -11.1025 1.9275 -10.125 1.375 C-6.52488342 -0.20905129 -3.89166046 -0.23349963 0 0 Z " fill="#F8CE6A" transform="translate(496,133)"/>
<path d="M0 0 C2.75618035 1.17705799 5.36916717 2.56760463 8 4 C8.78246094 4.40734375 9.56492187 4.8146875 10.37109375 5.234375 C16.55683208 8.52530968 16.55683208 8.52530968 18.8671875 11 C21.51801341 13.48575616 23.95090099 14.31872575 27.375 15.5 C32.14541969 17.23275334 35.93722571 19.00637684 40 22 C41.485 22.495 41.485 22.495 43 23 C43.495 23.99 43.495 23.99 44 25 C45.485 25.495 45.485 25.495 47 26 C47.495 26.99 47.495 26.99 48 28 C49.93573619 28.76632119 51.89802408 29.3376919 53.89453125 29.92578125 C56.9483679 31.48386117 58.15819152 33.08871617 60 36 C60.57613903 39.03486197 60.52721981 42.01697674 60.48774719 45.09844971 C60.49187046 46.01673199 60.49599372 46.93501428 60.50024194 47.8811233 C60.50917449 50.95913798 60.48950804 54.03630193 60.4699707 57.11425781 C60.47047944 59.32024234 60.47273474 61.52622706 60.47660828 63.73220825 C60.48203272 69.72364513 60.46260386 75.71477342 60.43850732 81.70615482 C60.41724074 87.96772883 60.41780741 94.22930137 60.41581726 100.49090576 C60.40936773 111.00244991 60.3882381 121.51389606 60.35668945 132.02539062 C60.32423055 142.84896328 60.30300383 153.67247454 60.29516602 164.49609375 C60.29468052 165.16330174 60.29419503 165.83050973 60.29369483 166.51793614 C60.29176626 169.19955098 60.28985413 171.88116582 60.28797873 174.56278069 C60.28000023 185.49159954 60.26272824 196.42040615 60.24434257 207.34921169 C60.23826648 211.0872103 60.23312836 214.82520953 60.2279911 218.56320953 C60.21923429 224.42363877 60.20495097 230.2840301 60.1862812 236.14443588 C60.18013891 238.30161753 60.1756998 240.45880475 60.17303848 242.6159935 C60.16908136 245.54719386 60.15898739 248.47830722 60.14717102 251.40948486 C60.14735538 252.27473384 60.14753975 253.13998282 60.14772969 254.03145146 C60.11423636 259.88576364 60.11423636 259.88576364 59 261 C57.00041636 261.04080783 54.99954746 261.04254356 53 261 C53 261.66 53 262.32 53 263 C49.63316085 265.43160605 48.26649636 266 44 266 C43.67 266.99 43.34 267.98 43 269 C38.66666667 272 38.66666667 272 36 272 C35.67 272.99 35.34 273.98 35 275 C33.1875 275.87890625 33.1875 275.87890625 31 276.5625 C28.85458962 277.20681284 28.85458962 277.20681284 27 278 C26.67 278.66 26.34 279.32 26 280 C24.15653909 281.01768347 22.27415711 281.96547811 20.375 282.875 C16.81593904 284.60163124 13.32652977 286.3342939 9.9375 288.375 C7 290 7 290 4 290 C4 290.66 4 291.32 4 292 C-1.2519084 295.05343511 -1.2519084 295.05343511 -4.625 294.8125 C-6.87974171 294.04114099 -8.91813812 293.15658993 -11 292 C-11 291.34 -11 290.68 -11 290 C-11.64324219 289.86464844 -12.28648437 289.72929688 -12.94921875 289.58984375 C-19.92433339 287.92815453 -25.72746132 285.24754986 -31.95703125 281.71875 C-34.92674312 280.04137744 -37.93811957 278.501191 -41 277 C-41 276.34 -41 275.68 -41 275 C-42.32 274.67 -43.64 274.34 -45 274 C-45 273.34 -45 272.68 -45 272 C-45.7425 271.87625 -46.485 271.7525 -47.25 271.625 C-49.80141485 271.04513299 -51.7267573 270.26291261 -54 269 C-54 268.34 -54 267.68 -54 267 C-54.556875 266.896875 -55.11375 266.79375 -55.6875 266.6875 C-58.44019415 265.86913147 -60.5433153 264.47401082 -63 263 C-63.721875 262.835 -64.44375 262.67 -65.1875 262.5 C-67 262 -67 262 -69 259 C-69.20077354 256.00867128 -69.28251216 253.10980788 -69.27415466 250.11755371 C-69.27939134 249.19830785 -69.28462802 248.27906199 -69.29002339 247.3319602 C-69.30507543 244.23884143 -69.30572967 241.14588732 -69.30639648 238.05273438 C-69.31401433 235.84043598 -69.32244118 233.62814025 -69.33161926 231.41584778 C-69.35360484 225.39741582 -69.36236833 219.37903468 -69.36744571 213.36056709 C-69.37108371 209.60411598 -69.37732077 205.84767831 -69.3844471 202.0912323 C-69.40390523 191.69414855 -69.42041726 181.29707411 -69.42332363 170.89997101 C-69.4235112 170.23461853 -69.42369877 169.56926604 -69.42389202 168.88375136 C-69.42425828 167.53488922 -69.42462198 166.18602708 -69.42498314 164.83716494 C-69.42516595 164.16757531 -69.42534876 163.49798569 -69.42553711 162.80810547 C-69.42571766 162.13770058 -69.42589821 161.46729569 -69.42608423 160.77657551 C-69.4296285 149.9052399 -69.45666738 139.03410204 -69.494035 128.16283506 C-69.53207766 117.00611311 -69.55103928 105.8494636 -69.55178314 94.69266939 C-69.55257821 88.42653391 -69.56142261 82.16065362 -69.58978081 75.89457703 C-69.6158409 70.00449459 -69.61823425 64.11488115 -69.60212517 58.22476768 C-69.60030119 56.0587379 -69.60708615 53.89268187 -69.62294388 51.72670937 C-69.64322192 48.77805713 -69.63296079 45.83107436 -69.61473083 42.88244629 C-69.6279308 42.01776781 -69.64113077 41.15308932 -69.65473074 40.26220846 C-69.62082577 37.87467194 -69.62082577 37.87467194 -69 34 C-65.79129152 31.11836789 -64.36156198 31 -60 31 C-60 30.34 -60 29.68 -60 29 C-59.01 28.67 -58.02 28.34 -57 28 C-56.67 27.34 -56.34 26.68 -56 26 C-54.22265625 25.21875 -54.22265625 25.21875 -52.0625 24.5 C-49.29544796 23.57597536 -48.10862631 23.10862631 -46 21 C-44.68 21 -43.36 21 -42 21 C-42 20.34 -42 19.68 -42 19 C-41.48050781 18.75765625 -40.96101563 18.5153125 -40.42578125 18.265625 C-37.18950843 16.7102998 -34.31522678 15.25218142 -31.5 13 C-28.71394585 10.77115668 -25.90475691 9.40028416 -22.671875 7.9296875 C-20.8168776 7.10405228 -20.8168776 7.10405228 -20 5 C-17.85546875 4 -17.85546875 4 -15.1875 3 C-12.66410945 2.04580801 -10.23584676 1.12412987 -7.84765625 -0.1328125 C-4.93202242 -1.50124952 -3.0730242 -0.82735267 0 0 Z " fill="#F8CE6A" transform="translate(327,227)"/>
<path d="M0 0 C1.4540625 0.0309375 1.4540625 0.0309375 2.9375 0.0625 C2.9375 0.7225 2.9375 1.3825 2.9375 2.0625 C4.5875 2.0625 6.2375 2.0625 7.9375 2.0625 C8.4325 3.0525 8.4325 3.0525 8.9375 4.0625 C9.9275 4.3925 10.9175 4.7225 11.9375 5.0625 C12.4325 6.0525 12.4325 6.0525 12.9375 7.0625 C14.75253808 7.75548547 14.75253808 7.75548547 16.9375 8.3125 C21.50659693 9.73625675 24.97626724 11.89224563 28.859375 14.6484375 C31.0826732 16.2399578 31.0826732 16.2399578 34.375 17.6875 C37.16612411 19.18517635 37.92067511 20.11370783 38.9375 23.0625 C40.5875 23.0625 42.2375 23.0625 43.9375 23.0625 C43.9375 23.7225 43.9375 24.3825 43.9375 25.0625 C45.5875 25.0625 47.2375 25.0625 48.9375 25.0625 C49.4325 26.0525 49.4325 26.0525 49.9375 27.0625 C51.4225 27.5575 51.4225 27.5575 52.9375 28.0625 C52.9375 28.7225 52.9375 29.3825 52.9375 30.0625 C53.64777344 30.25585938 54.35804688 30.44921875 55.08984375 30.6484375 C56.00894531 30.90882813 56.92804688 31.16921875 57.875 31.4375 C58.79152344 31.69273437 59.70804687 31.94796875 60.65234375 32.2109375 C62.9375 33.0625 62.9375 33.0625 63.9375 35.0625 C64.05157559 36.74405489 64.10324979 38.43000124 64.12504578 40.11528015 C64.14087204 41.18492508 64.1566983 42.25457001 64.17300415 43.35662842 C64.18511932 44.53533508 64.1972345 45.71404175 64.2097168 46.9284668 C64.23403023 48.78472435 64.23403023 48.78472435 64.25883484 50.67848206 C64.39902771 62.09563739 64.47859618 73.51361908 64.53775311 84.93146038 C64.58231952 93.370051 64.65944431 101.80701579 64.77933758 110.24487942 C64.86081697 116.17955708 64.90390219 122.11378986 64.91905528 128.04900295 C64.92921196 131.59303698 64.9564154 135.13502335 65.02536583 138.678442 C65.10152474 142.63595412 65.09836277 146.59128283 65.08862305 150.54956055 C65.12300476 151.71814606 65.15738647 152.88673157 65.19281006 154.09072876 C65.08435827 161.8273998 65.08435827 161.8273998 61.80973244 165.35398293 C57.65158628 168.40041264 54.06284443 170.29286642 48.9375 171.0625 C48.9375 171.7225 48.9375 172.3825 48.9375 173.0625 C47.9475 173.454375 46.9575 173.84625 45.9375 174.25 C42.27315139 175.79601321 39.09859413 177.81889326 35.83203125 180.07421875 C33.9375 181.0625 33.9375 181.0625 29.9375 181.0625 C29.6075 182.0525 29.2775 183.0425 28.9375 184.0625 C27.08830941 185.03752777 25.23101075 186.00026936 23.3359375 186.8828125 C19.79560639 188.624148 16.48741867 190.71521919 13.13671875 192.79296875 C10.9375 194.0625 10.9375 194.0625 7.9375 195.0625 C7.6075 195.7225 7.2775 196.3825 6.9375 197.0625 C3.41053191 199.50424714 0.11197133 199.22305659 -4.0625 199.0625 C-4.3925 198.0725 -4.7225 197.0825 -5.0625 196.0625 C-7.07758358 195.32926204 -7.07758358 195.32926204 -9.0625 195.0625 C-9.0625 194.4025 -9.0625 193.7425 -9.0625 193.0625 C-10.34125 192.85625 -11.62 192.65 -12.9375 192.4375 C-17.83893954 191.37062515 -21.53236632 189.22598606 -25.703125 186.5 C-28.08994775 185.04577687 -30.44463504 184.02795374 -33.0625 183.0625 C-33.0625 182.4025 -33.0625 181.7425 -33.0625 181.0625 C-34.3825 181.0625 -35.7025 181.0625 -37.0625 181.0625 C-37.5575 180.0725 -37.5575 180.0725 -38.0625 179.0625 C-40.17577425 178.15524566 -40.17577425 178.15524566 -42.625 177.4375 C-43.45128906 177.17710937 -44.27757813 176.91671875 -45.12890625 176.6484375 C-45.76699219 176.45507812 -46.40507813 176.26171875 -47.0625 176.0625 C-47.0625 175.4025 -47.0625 174.7425 -47.0625 174.0625 C-47.92875 173.9078125 -47.92875 173.9078125 -48.8125 173.75 C-51.0625 173.0625 -51.0625 173.0625 -52.9375 171.625 C-55.5165764 169.7286203 -58.0187455 169.01367328 -61.0625 168.0625 C-63.375 167.125 -63.375 167.125 -65.0625 166.0625 C-66.07475267 163.02574198 -66.18821761 160.99422616 -66.18948364 157.81785583 C-66.19230347 156.73119629 -66.19512329 155.64453674 -66.19802856 154.52494812 C-66.19600433 153.33263077 -66.1939801 152.14031342 -66.19189453 150.91186523 C-66.19364685 149.65642914 -66.19539917 148.40099304 -66.19720459 147.10751343 C-66.20176683 143.66344195 -66.19999444 140.2194004 -66.1968255 136.7753284 C-66.19429623 133.17411642 -66.19664098 129.57290702 -66.19821167 125.97169495 C-66.20003147 119.92489155 -66.19763178 113.87810037 -66.19287109 107.83129883 C-66.18742638 100.8347515 -66.18919341 93.83823329 -66.1946975 86.84168667 C-66.19923109 80.8390943 -66.19987804 74.83651072 -66.19725883 68.8339172 C-66.19569773 65.24678607 -66.19549778 61.65966864 -66.19879532 58.07253838 C-66.20221233 54.07626075 -66.19748027 50.08001593 -66.19189453 46.08374023 C-66.19493088 44.29222786 -66.19493088 44.29222786 -66.19802856 42.46452332 C-66.19520874 41.38068359 -66.19238892 40.29684387 -66.18948364 39.18016052 C-66.18910662 38.2346102 -66.18872959 37.28905989 -66.18834114 36.31485653 C-66.0625 34.0625 -66.0625 34.0625 -65.0625 32.0625 C-60.10774698 29.40816802 -55.03713072 27.14630898 -49.84765625 24.9921875 C-47.88198086 24.19039986 -47.88198086 24.19039986 -47.0625 22.0625 C-45.42016602 21.10107422 -45.42016602 21.10107422 -43.31640625 20.1171875 C-42.18428711 19.58544922 -42.18428711 19.58544922 -41.02929688 19.04296875 C-40.23587891 18.67816406 -39.44246094 18.31335938 -38.625 17.9375 C-37.83544922 17.56496094 -37.04589844 17.19242187 -36.23242188 16.80859375 C-30.33284684 14.0625 -30.33284684 14.0625 -28.0625 14.0625 C-28.0625 13.4025 -28.0625 12.7425 -28.0625 12.0625 C-26.7425 12.0625 -25.4225 12.0625 -24.0625 12.0625 C-24.0625 11.4025 -24.0625 10.7425 -24.0625 10.0625 C-22.4125 9.7325 -20.7625 9.4025 -19.0625 9.0625 C-19.0625 8.4025 -19.0625 7.7425 -19.0625 7.0625 C-16.51884852 6.04229446 -13.97345117 5.0275918 -11.421875 4.02734375 C-10.56078125 3.68832031 -9.6996875 3.34929687 -8.8125 3 C-7.94109375 2.65839844 -7.0696875 2.31679688 -6.171875 1.96484375 C-1.65782424 0.03383315 -1.65782424 0.03383315 0 0 Z " fill="#F8CE6B" transform="translate(164.0625,322.9375)"/>
<path d="M0 0 C0.99 0 1.98 0 3 0 C3 0.99 3 1.98 3 3 C4.65 3.33 6.3 3.66 8 4 C8 4.99 8 5.98 8 7 C8.721875 7.103125 9.44375 7.20625 10.1875 7.3125 C13.94460368 8.23090312 16.80916195 9.7595437 19.5 12.5625 C20.96200191 14.1430893 20.96200191 14.1430893 23.1875 14.875 C25.74967004 15.89986802 27.65615611 17.04305531 29.9375 18.5625 C33.29889654 20.73976822 35.99454804 21.51153025 40 22 C40.495 22.99 40.495 22.99 41 24 C43.02120024 25.07594065 45.09289801 25.97847466 47.1875 26.90234375 C49 28 49 28 50 31 C51.216875 31.103125 52.43375 31.20625 53.6875 31.3125 C57.41390245 31.77499676 59.95879456 32.69605648 63 35 C64.27664409 37.55328817 64.12417643 39.33693199 64.12304783 42.19680214 C64.12503888 43.30502063 64.12702993 44.41323913 64.12908131 45.55504 C64.12616847 46.78264493 64.12325563 48.01024986 64.12025452 49.27505493 C64.12110894 50.57124988 64.12196337 51.86744483 64.12284368 53.20291841 C64.12508829 56.81270967 64.12106782 60.42247148 64.11606562 64.03225899 C64.11176082 67.92046739 64.11320757 71.80867404 64.1139679 75.69688416 C64.11449311 82.43744935 64.11134656 89.17800489 64.10573006 95.91856766 C64.09761474 105.66437771 64.0949998 115.41018307 64.09374207 125.15599613 C64.0915516 140.96663028 64.08489165 156.77725927 64.07543945 172.58789062 C64.06626521 187.94954401 64.05918443 203.31119599 64.05493164 218.67285156 C64.05466892 219.61920371 64.05440619 220.56555586 64.05413551 221.54058535 C64.0528305 226.28799466 64.05156679 231.03540398 64.05032361 235.78281331 C64.03995115 275.18854581 64.02233297 314.59427257 64 354 C66.97 353.34 69.94 352.68 73 352 C73 351.34 73 350.68 73 350 C73.66 350.33 74.32 350.66 75 351 C73.5625 353.5 73.5625 353.5 71 356 C67.23150263 356.6291985 63.4552827 356.72764135 60 355 C60 354.34 60 353.68 60 353 C59.278125 353.103125 58.55625 353.20625 57.8125 353.3125 C54.45329688 352.93925521 53.81631248 351.88134514 51.6640625 349.4375 C48.67033683 346.85137079 44.9567613 345.60257449 41.328125 344.11328125 C39 343 39 343 38 341 C36.19652143 339.82122346 36.19652143 339.82122346 34 338.6875 C33.19046875 338.25050781 32.3809375 337.81351562 31.546875 337.36328125 C30.70640625 336.91339844 29.8659375 336.46351563 29 336 C27.414904 335.1281972 25.83149703 334.25331463 24.25 333.375 C23.5075 332.96378906 22.765 332.55257813 22 332.12890625 C20.39700271 331.22408942 18.81889761 330.27523262 17.25 329.3125 C14.88868049 327.93506362 12.54147666 327.00476984 10 326 C8.59634928 325.3713379 7.20091629 324.72412798 5.8125 324.0625 C5.13832031 323.74410156 4.46414063 323.42570312 3.76953125 323.09765625 C2 322 2 322 0 319 C-0.24839699 316.58196718 -0.24839699 316.58196718 -0.24609566 313.64891529 C-0.25007775 312.53173896 -0.25405985 311.41456262 -0.25816262 310.26353246 C-0.25233693 309.03105848 -0.24651125 307.7985845 -0.24050903 306.52876282 C-0.24221788 305.22354634 -0.24392673 303.91832986 -0.24568737 302.57356137 C-0.25017112 298.94319325 -0.24214318 295.31294256 -0.23213124 291.68258941 C-0.22351379 287.77054013 -0.22641569 283.85849775 -0.22793579 279.94644165 C-0.22898572 273.16604855 -0.22269782 266.38569387 -0.21146011 259.60531044 C-0.19522274 249.80195656 -0.18999892 239.9986213 -0.18748413 230.19525542 C-0.18310425 214.29088565 -0.16978723 198.38653637 -0.15087891 182.48217773 C-0.13252767 167.03035586 -0.11836747 151.57853955 -0.10986328 136.12670898 C-0.10933783 135.17464557 -0.10881239 134.22258215 -0.10827102 133.24166832 C-0.10566099 128.46556153 -0.10313356 123.6894547 -0.10064721 118.91334784 C-0.0799056 79.27555088 -0.04467212 39.63777679 0 0 Z " fill="#D99357" transform="translate(427,167)"/>
<path d="M0 0 C1.32 0.33 2.64 0.66 4 1 C3.01 1 2.02 1 1 1 C0.67 1.99 0.34 2.98 0 4 C-2.28515625 5.38671875 -2.28515625 5.38671875 -5.0625 6.6875 C-5.98160156 7.12449219 -6.90070313 7.56148438 -7.84765625 8.01171875 C-8.91306641 8.50091797 -8.91306641 8.50091797 -10 9 C-10 10.32 -10 11.64 -10 13 C-8.35 13 -6.7 13 -5 13 C-4.67 13.99 -4.34 14.98 -4 16 C-2.67923124 16.38007734 -1.34111888 16.69951867 0 17 C2.95824358 18.43857376 5.87113929 19.93685299 8.77929688 21.47265625 C12.20457844 23.23887479 15.23628603 24.27914134 19 25 C19.495 25.99 19.495 25.99 20 27 C21.48867276 27.92866164 23.01554706 28.79705336 24.5625 29.625 C25.38878906 30.07101562 26.21507812 30.51703125 27.06640625 30.9765625 C27.70449219 31.31429688 28.34257812 31.65203125 29 32 C29 32.66 29 33.32 29 34 C29.55171875 34.11214844 30.1034375 34.22429687 30.671875 34.33984375 C33.40065211 35.11360773 35.72772943 36.26817694 38.25 37.5625 C39.14203125 38.01753906 40.0340625 38.47257812 40.953125 38.94140625 C41.96632813 39.46541016 41.96632813 39.46541016 43 40 C43 40.66 43 41.32 43 42 C45.65228812 43.07525194 48.28368454 44.09456151 51 45 C51 118.59 51 192.18 51 268 C51.99 268.33 52.98 268.66 54 269 C50.65626525 268.44271087 47.96687001 267.64826111 45 266 C45 265.34 45 264.68 45 264 C44.35675781 263.86464844 43.71351563 263.72929688 43.05078125 263.58984375 C36.07566661 261.92815453 30.27253868 259.24754986 24.04296875 255.71875 C21.07325688 254.04137744 18.06188043 252.501191 15 251 C15 250.34 15 249.68 15 249 C13.68 248.67 12.36 248.34 11 248 C11 247.34 11 246.68 11 246 C9.88625 245.814375 9.88625 245.814375 8.75 245.625 C6.19858515 245.04513299 4.2732427 244.26291261 2 243 C2 242.34 2 241.68 2 241 C1.1646875 240.8453125 1.1646875 240.8453125 0.3125 240.6875 C-2.44019415 239.86913147 -4.5433153 238.47401082 -7 237 C-7.721875 236.835 -8.44375 236.67 -9.1875 236.5 C-11 236 -11 236 -13 233 C-13.20077354 230.00867128 -13.28251216 227.10980788 -13.27415466 224.11755371 C-13.27939134 223.19830785 -13.28462802 222.27906199 -13.29002339 221.3319602 C-13.30507543 218.23884143 -13.30572967 215.14588732 -13.30639648 212.05273438 C-13.31401433 209.84043598 -13.32244118 207.62814025 -13.33161926 205.41584778 C-13.35360484 199.39741582 -13.36236833 193.37903468 -13.36744571 187.36056709 C-13.37108371 183.60411598 -13.37732077 179.84767831 -13.3844471 176.0912323 C-13.40390523 165.69414855 -13.42041726 155.29707411 -13.42332363 144.89997101 C-13.4235112 144.23461853 -13.42369877 143.56926604 -13.42389202 142.88375136 C-13.42425828 141.53488922 -13.42462198 140.18602708 -13.42498314 138.83716494 C-13.42516595 138.16757531 -13.42534876 137.49798569 -13.42553711 136.80810547 C-13.42571766 136.13770058 -13.42589821 135.46729569 -13.42608423 134.77657551 C-13.4296285 123.9052399 -13.45666738 113.03410204 -13.494035 102.16283506 C-13.53207766 91.00611311 -13.55103928 79.8494636 -13.55178314 68.69266939 C-13.55257821 62.42653391 -13.56142261 56.16065362 -13.58978081 49.89457703 C-13.6158409 44.00449459 -13.61823425 38.11488115 -13.60212517 32.22476768 C-13.60030119 30.0587379 -13.60708615 27.89268187 -13.62294388 25.72670937 C-13.64322192 22.77805713 -13.63296079 19.83107436 -13.61473083 16.88244629 C-13.6279308 16.01776781 -13.64113077 15.15308932 -13.65473074 14.26220846 C-13.62082577 11.87467194 -13.62082577 11.87467194 -13 8 C-9.79129152 5.11836789 -8.36156198 5 -4 5 C-4 4.34 -4 3.68 -4 3 C-3.01 2.67 -2.02 2.34 -1 2 C-0.67 1.34 -0.34 0.68 0 0 Z " fill="#D89256" transform="translate(271,253)"/>
<path d="M0 0 C2.0625 0.4375 2.0625 0.4375 4 1 C3.01 2.485 3.01 2.485 2 4 C0.68 4 -0.64 4 -2 4 C-2.33 4.99 -2.66 5.98 -3 7 C-4.32 7 -5.64 7 -7 7 C-4.61656825 9.6343193 -2.06086579 11.22042687 1 13 C1.845625 13.598125 2.69125 14.19625 3.5625 14.8125 C8.3881012 18.08474145 13.76694422 20.45968166 19 23 C19 23.66 19 24.32 19 25 C20.3303125 25.433125 20.3303125 25.433125 21.6875 25.875 C24.50382424 26.83148748 27.25083156 27.86798946 30 29 C30 29.66 30 30.32 30 31 C32.46067408 31.98776615 34.92274919 32.97000703 37.39453125 33.9296875 C52.12600146 39.68900218 52.12600146 39.68900218 55 44 C55.24609566 46.35254955 55.24609566 46.35254955 55.24050903 49.18217468 C55.24325836 50.25489624 55.24600769 51.3276178 55.24884033 52.43284607 C55.2380545 54.19798302 55.2380545 54.19798302 55.22705078 55.9987793 C55.22734283 57.23792084 55.22763489 58.47706238 55.22793579 59.75375366 C55.22678027 63.15232301 55.21674213 66.5506501 55.20278788 69.94917655 C55.19029484 73.50060041 55.18911115 77.05202741 55.18673706 80.60346985 C55.18051809 87.32889331 55.16410165 94.05425184 55.14403808 100.77964669 C55.12169205 108.43615153 55.11068892 116.09265946 55.10064721 123.74918878 C55.07973577 139.49949681 55.04455171 155.24974003 55 171 C55.61359375 170.66226563 56.2271875 170.32453125 56.859375 169.9765625 C59.4056713 168.81493098 60.42143135 169.07908262 63 170 C59.36576791 172.32590854 56.22911669 172.16265833 52 172 C51.67 171.01 51.34 170.02 51 169 C48.98491642 168.26676204 48.98491642 168.26676204 47 168 C47 167.34 47 166.68 47 166 C45.72125 165.79375 44.4425 165.5875 43.125 165.375 C38.22356046 164.30812515 34.53013368 162.16348606 30.359375 159.4375 C27.97255225 157.98327687 25.61786496 156.96545374 23 156 C23 155.34 23 154.68 23 154 C21.68 154 20.36 154 19 154 C18.505 153.01 18.505 153.01 18 152 C15.88672575 151.09274566 15.88672575 151.09274566 13.4375 150.375 C12.61121094 150.11460937 11.78492187 149.85421875 10.93359375 149.5859375 C10.29550781 149.39257812 9.65742187 149.19921875 9 149 C9 148.34 9 147.68 9 147 C8.13375 146.8453125 8.13375 146.8453125 7.25 146.6875 C5 146 5 146 3.125 144.5625 C0.5459236 142.6661203 -1.9562455 141.95117328 -5 141 C-7.3125 140.0625 -7.3125 140.0625 -9 139 C-10.01225267 135.96324198 -10.12571761 133.93172616 -10.12698364 130.75535583 C-10.12980347 129.66869629 -10.13262329 128.58203674 -10.13552856 127.46244812 C-10.13350433 126.27013077 -10.1314801 125.07781342 -10.12939453 123.84936523 C-10.13114685 122.59392914 -10.13289917 121.33849304 -10.13470459 120.04501343 C-10.13926683 116.60094195 -10.13749444 113.1569004 -10.1343255 109.7128284 C-10.13179623 106.11161642 -10.13414098 102.51040702 -10.13571167 98.90919495 C-10.13753147 92.86239155 -10.13513178 86.81560037 -10.13037109 80.76879883 C-10.12492638 73.7722515 -10.12669341 66.77573329 -10.1321975 59.77918667 C-10.13673109 53.7765943 -10.13737804 47.77401072 -10.13475883 41.7714172 C-10.13319773 38.18428607 -10.13299778 34.59716864 -10.13629532 31.01003838 C-10.13971233 27.01376075 -10.13498027 23.01751593 -10.12939453 19.02124023 C-10.13243088 17.22972786 -10.13243088 17.22972786 -10.13552856 15.40202332 C-10.13270874 14.31818359 -10.12988892 13.23434387 -10.12698364 12.11766052 C-10.12660662 11.1721102 -10.12622959 10.22655989 -10.12584114 9.25235653 C-10 7 -10 7 -9 5 C-7.1875 3.96484375 -7.1875 3.96484375 -5 2.9375 C-2.30092276 1.75531476 -2.30092276 1.75531476 0 0 Z " fill="#D89357" transform="translate(108,350)"/>
<path d="M0 0 C0.495 0.99 0.495 0.99 1 2 C1.99 2.33 2.98 2.66 4 3 C4 3.66 4 4.32 4 5 C4.7321875 5.11730469 5.464375 5.23460937 6.21875 5.35546875 C12.63459616 6.84228703 17.99031504 10.87437709 23 15 C23.99 15.33 24.98 15.66 26 16 C26 16.66 26 17.32 26 18 C27.98 18 29.96 18 32 18 C32.495 19.485 32.495 19.485 33 21 C34.82106927 21.66327051 34.82106927 21.66327051 37 22 C38.56791172 22.46115051 40.13048509 22.94079938 41.6875 23.4375 C42.47511719 23.68371094 43.26273438 23.92992187 44.07421875 24.18359375 C46 25 46 25 47 27 C48.85240164 27.83047008 48.85240164 27.83047008 51 28.5 C53.1875 29.21875 53.1875 29.21875 55 30 C55.495 30.99 55.495 30.99 56 32 C56.83276286 32.42637882 57.66552571 32.85275764 58.52352381 33.29205704 C61 35 61 35 61.62444448 37.40816879 C61.6241721 38.37141193 61.62389972 39.33465508 61.62361908 40.3270874 C61.63542442 41.43893024 61.64722976 42.55077309 61.65939283 43.69630814 C61.64687499 44.92284481 61.63435714 46.14938148 61.62145996 47.41308594 C61.62784878 48.71210217 61.6342376 50.01111839 61.64082003 51.34949875 C61.65786719 54.96287112 61.64359251 58.57555408 61.62430525 62.18889046 C61.60891873 66.08261982 61.62226958 69.97626245 61.63204956 73.86999512 C61.64659967 81.5008121 61.63431855 89.13136366 61.61293632 96.76215553 C61.58896351 105.64235223 61.59063839 114.52248762 61.59324223 123.40270948 C61.59693512 139.24378866 61.57608349 155.0847425 61.54199219 170.92578125 C61.50889908 186.30862598 61.49473357 201.69133914 61.50097656 217.07421875 C61.50773595 233.8119222 61.50529319 250.54957048 61.48561716 267.28726578 C61.48457768 268.1718167 61.48353819 269.05636763 61.4824672 269.96772313 C61.48037626 271.74446275 61.47826528 273.52120235 61.47613403 275.29794192 C61.46922958 281.49269997 61.46857059 287.68744106 61.47001648 293.88220215 C61.47145411 301.42819218 61.46180345 308.97407473 61.43807012 316.52002907 C61.42618522 320.37252268 61.41910141 324.22486621 61.42490768 328.07737732 C61.43100691 332.24737815 61.41396217 336.41695476 61.39440918 340.58691406 C61.40240107 342.42671907 61.40240107 342.42671907 61.41055441 344.30369186 C61.39696945 345.97145613 61.39696945 345.97145613 61.38311005 347.6729126 C61.38153884 348.63615574 61.37996764 349.59939888 61.37834883 350.59183121 C60.9316234 353.43521321 60.25318494 354.2725047 58 356 C55.73828125 357.16796875 55.73828125 357.16796875 53.3125 358.1875 C52.50425781 358.53167969 51.69601562 358.87585938 50.86328125 359.23046875 C50.24839844 359.48441406 49.63351562 359.73835938 49 360 C49.33 359.01 49.66 358.02 50 357 C53.96 355.02 53.96 355.02 58 353 C58.33 249.05 58.66 145.1 59 38 C54.00483463 40.48755919 54.00483463 40.48755919 49.3125 43.3125 C42.95973826 47.34522829 36.32289558 50.88913195 29.5625 54.1875 C26.13478489 55.76301837 26.13478489 55.76301837 24.0625 57.625 C21.22505608 59.51662928 18.36781238 59.79402047 15.0234375 60.27734375 C12.8271734 60.81363017 12.8271734 60.81363017 11.8984375 62.9375 C11.60195313 63.618125 11.30546875 64.29875 11 65 C1.66666667 72 1.66666667 72 -3 72 C-3 175.29 -3 278.58 -3 385 C-1.02 385 0.96 385 3 385 C3 384.34 3 383.68 3 383 C4.32 383.33 5.64 383.66 7 384 C6.01 384 5.02 384 4 384 C4 384.66 4 385.32 4 386 C0.53785351 388.05164237 -0.59389235 388 -5 388 C-5.33 282.73 -5.66 177.46 -6 69 C-9.3 68.01 -12.6 67.02 -16 66 C-19 65 -19 65 -21 62 C-22.9466071 60.78581167 -22.9466071 60.78581167 -25.125 59.8125 C-25.84945312 59.46832031 -26.57390625 59.12414062 -27.3203125 58.76953125 C-28.15175781 58.38861328 -28.15175781 58.38861328 -29 58 C-29 57.34 -29 56.68 -29 56 C-29.804375 56.12375 -30.60875 56.2475 -31.4375 56.375 C-35.91287318 55.90390809 -38.19257039 54.1359641 -41.75390625 51.5078125 C-44.09111751 49.93883242 -46.39244424 49.03342929 -49 48 C-49.8971875 47.0409375 -49.8971875 47.0409375 -50.8125 46.0625 C-53.89170559 43.15924901 -56.999014 42.333662 -61 41 C-61 40.01 -61 39.02 -61 38 C-62.65 37.67 -64.3 37.34 -66 37 C-66 34 -66 34 -64.73828125 32.4375 C-62.94891473 30.9577542 -61.28290728 29.99190877 -59.1875 29 C-58.48238281 28.66097656 -57.77726562 28.32195312 -57.05078125 27.97265625 C-56.37402344 27.65167969 -55.69726562 27.33070313 -55 27 C-53.96875 26.484375 -52.9375 25.96875 -51.875 25.4375 C-49.84972567 24.42486284 -47.80591562 23.44888413 -45.75 22.5 C-42.76204931 21.14664403 -42.76204931 21.14664403 -41 18 C-38.375 17.3125 -38.375 17.3125 -36 17 C-36 16.34 -36 15.68 -36 15 C-31.444322 11.87610652 -27.54891125 10 -22 10 C-22 9.34 -22 8.68 -22 8 C-21.01 7.67 -20.02 7.34 -19 7 C-18.67 6.34 -18.34 5.68 -18 5 C-16.35008418 4.29289322 -14.6792238 3.63437344 -13 3 C-12.05125 2.46375 -11.1025 1.9275 -10.125 1.375 C-6.52488342 -0.20905129 -3.89166046 -0.23349963 0 0 Z " fill="#F4B265" transform="translate(496,133)"/>
<path d="M0 0 C2.75618035 1.17705799 5.36916717 2.56760463 8 4 C8.78246094 4.40734375 9.56492187 4.8146875 10.37109375 5.234375 C16.55683208 8.52530968 16.55683208 8.52530968 18.8671875 11 C21.51801341 13.48575616 23.95090099 14.31872575 27.375 15.5 C32.14541969 17.23275334 35.93722571 19.00637684 40 22 C41.485 22.495 41.485 22.495 43 23 C43.495 23.99 43.495 23.99 44 25 C45.485 25.495 45.485 25.495 47 26 C47.495 26.99 47.495 26.99 48 28 C49.93573619 28.76632119 51.89802408 29.3376919 53.89453125 29.92578125 C56.94876556 31.48406406 58.15838446 33.0879683 60 36 C60.5744181 39.0373916 60.5229407 42.02158821 60.48101807 45.10517883 C60.48443577 46.02416669 60.48785347 46.94315454 60.49137473 47.88999051 C60.49796504 50.97035298 60.47595818 54.04984472 60.45410156 57.13012695 C60.45297334 59.33773274 60.45360646 61.54534003 60.45587158 63.75294495 C60.45702062 69.74845659 60.43348031 75.74364902 60.40557575 81.73908639 C60.38059384 88.00379083 60.37822262 94.26850234 60.37347412 100.5332489 C60.36244879 111.04899249 60.3374532 121.56463723 60.30175781 132.08032227 C60.2650324 142.91071996 60.23672326 153.7410858 60.21972656 164.5715332 C60.21815022 165.57319329 60.21815022 165.57319329 60.21654204 166.59508894 C60.21132182 169.94516752 60.20626701 173.29524634 60.20129442 176.6453253 C60.15946874 204.43029852 60.08909823 232.21514102 60 260 C59.01 260 58.02 260 57 260 C57.33 185.75 57.66 111.5 58 35 C57.34 35 56.68 35 56 35 C55.9484375 35.7528125 55.896875 36.505625 55.84375 37.28125 C54.67229185 41.05594849 52.93652429 41.66024457 49.5 43.5 C48.41074219 44.09296875 47.32148438 44.6859375 46.19921875 45.296875 C45.14347656 45.85890625 44.08773437 46.4209375 43 47 C41.43692733 47.91568982 39.87435615 48.83223674 38.3125 49.75 C34.67760766 51.77157962 31.04634478 53.03507169 27.078125 54.2421875 C24.01016546 55.3609547 21.65691588 57.12071804 19 59 C18.34 59 17.68 59 17 59 C16.74863281 59.61746094 16.49726563 60.23492187 16.23828125 60.87109375 C14.78765379 63.36507471 13.79056622 63.91277094 11.1875 65.0625 C8.721295 66.19079994 6.55021341 67.28622783 4.25 68.75 C2 70 2 70 -2 70 C-2.33 142.93 -2.66 215.86 -3 291 C-1.02 291 0.96 291 3 291 C3 290.34 3 289.68 3 289 C4.32 289.33 5.64 289.66 7 290 C6.01 290 5.02 290 4 290 C4 290.66 4 291.32 4 292 C0.53785351 294.05164237 -0.59389235 294 -5 294 C-5 220.41 -5 146.82 -5 71 C-6.65 70.67 -8.3 70.34 -10 70 C-11.38301955 68.81455468 -12.76304483 67.62499877 -14.11328125 66.40234375 C-17.3305869 64.01101305 -21.02088699 62.64046922 -24.70703125 61.11328125 C-27 60 -27 60 -28 58 C-29.48867276 57.07133836 -31.01554706 56.20294664 -32.5625 55.375 C-33.38878906 54.92898438 -34.21507812 54.48296875 -35.06640625 54.0234375 C-35.70449219 53.68570313 -36.34257812 53.34796875 -37 53 C-37 52.34 -37 51.68 -37 51 C-38.0725 50.979375 -39.145 50.95875 -40.25 50.9375 C-45.68804848 50.30516878 -49.79772173 47.44649397 -54.36328125 44.59375 C-56.96390882 42.88974528 -56.96390882 42.88974528 -60 42 C-60.33 41.34 -60.66 40.68 -61 40 C-62.98 40 -64.96 40 -67 40 C-67.25 37.6875 -67.25 37.6875 -67 35 C-64.77039711 32.68121299 -62.23585815 31.64654318 -59.3125 30.4375 C-55.92727108 29.38993022 -55.92727108 29.38993022 -55 27 C-54.01 27 -53.02 27 -52 27 C-51.67 26.01 -51.34 25.02 -51 24 C-47.62132353 21.53447933 -46.29441798 21 -42 21 C-42 20.34 -42 19.68 -42 19 C-41.48050781 18.75765625 -40.96101563 18.5153125 -40.42578125 18.265625 C-37.18950843 16.7102998 -34.31522678 15.25218142 -31.5 13 C-28.71394585 10.77115668 -25.90475691 9.40028416 -22.671875 7.9296875 C-20.8168776 7.10405228 -20.8168776 7.10405228 -20 5 C-17.85546875 4 -17.85546875 4 -15.1875 3 C-12.66410945 2.04580801 -10.23584676 1.12412987 -7.84765625 -0.1328125 C-4.93202242 -1.50124952 -3.0730242 -0.82735267 0 0 Z " fill="#F2B465" transform="translate(327,227)"/>
<path d="M0 0 C1.4540625 0.0309375 1.4540625 0.0309375 2.9375 0.0625 C2.9375 0.7225 2.9375 1.3825 2.9375 2.0625 C4.5875 2.0625 6.2375 2.0625 7.9375 2.0625 C8.4325 3.0525 8.4325 3.0525 8.9375 4.0625 C9.9275 4.3925 10.9175 4.7225 11.9375 5.0625 C12.4325 6.0525 12.4325 6.0525 12.9375 7.0625 C14.75253808 7.75548547 14.75253808 7.75548547 16.9375 8.3125 C21.50659693 9.73625675 24.97626724 11.89224563 28.859375 14.6484375 C31.0826732 16.2399578 31.0826732 16.2399578 34.375 17.6875 C37.16612411 19.18517635 37.92067511 20.11370783 38.9375 23.0625 C40.5875 23.0625 42.2375 23.0625 43.9375 23.0625 C43.9375 23.7225 43.9375 24.3825 43.9375 25.0625 C45.5875 25.0625 47.2375 25.0625 48.9375 25.0625 C49.4325 26.0525 49.4325 26.0525 49.9375 27.0625 C51.4225 27.5575 51.4225 27.5575 52.9375 28.0625 C52.9375 28.7225 52.9375 29.3825 52.9375 30.0625 C53.64777344 30.25585938 54.35804688 30.44921875 55.08984375 30.6484375 C56.00894531 30.90882813 56.92804688 31.16921875 57.875 31.4375 C58.79152344 31.69273437 59.70804687 31.94796875 60.65234375 32.2109375 C62.9375 33.0625 62.9375 33.0625 63.9375 35.0625 C64.03055571 36.76038574 64.05941835 38.46195097 64.05775452 40.16238403 C64.05981651 41.7820256 64.05981651 41.7820256 64.06192017 43.43438721 C64.05652725 45.21894318 64.05652725 45.21894318 64.05102539 47.03955078 C64.05117142 48.28829987 64.05131744 49.53704895 64.0514679 50.82363892 C64.05088952 54.25318663 64.04586519 57.68267457 64.03889394 61.1122117 C64.03265378 64.69434338 64.03205608 68.27647579 64.03086853 71.85861206 C64.02775717 78.6442525 64.01954641 85.42987689 64.00951904 92.21551025 C63.99835184 99.93971216 63.99284592 107.66391483 63.98782361 115.3881228 C63.97736364 131.27959117 63.95976797 147.17104352 63.9375 163.0625 C63.6075 163.0625 63.2775 163.0625 62.9375 163.0625 C62.9375 121.1525 62.9375 79.2425 62.9375 36.0625 C61.9475 36.0625 60.9575 36.0625 59.9375 36.0625 C59.9375 36.7225 59.9375 37.3825 59.9375 38.0625 C57.3760343 40.35898649 56.45782428 41.0625 52.9375 41.0625 C52.9375 41.7225 52.9375 42.3825 52.9375 43.0625 C52.23753906 43.31515625 51.53757812 43.5678125 50.81640625 43.828125 C47.59683741 45.20856428 44.8259963 46.92561761 41.875 48.8125 C36.6630288 52.09667429 31.34832482 54.92791472 25.80078125 57.6171875 C22.11034292 59.48002813 18.60551881 61.58832834 15.09375 63.765625 C10.45886972 66.55327039 6.15181557 68.10713166 0.9375 70.0625 C0.6075 112.3025 0.2775 154.5425 -0.0625 198.0625 C-0.3925 198.0625 -0.7225 198.0625 -1.0625 198.0625 C-1.06673194 197.41074138 -1.07096388 196.75898275 -1.07532406 196.08747387 C-1.17856671 180.2388422 -1.28719486 164.39025803 -1.40183926 148.54170513 C-1.45714981 140.87750971 -1.51062826 133.21330964 -1.55981445 125.54907227 C-1.60268283 118.87000295 -1.64896754 112.1909676 -1.69937855 105.51195079 C-1.7259581 101.97450221 -1.75081064 98.43706027 -1.77157402 94.89957237 C-1.79479995 90.95342898 -1.82565215 87.00736556 -1.85717773 83.0612793 C-1.86581093 81.29614235 -1.86581093 81.29614235 -1.87461853 79.49534607 C-1.88440735 78.42262451 -1.89419617 77.34990295 -1.90428162 76.24467468 C-1.91073417 75.31089839 -1.91718672 74.3771221 -1.9238348 73.41504955 C-1.96930617 70.90898322 -1.96930617 70.90898322 -3.0625 68.0625 C-4.38398827 67.68493192 -5.72085921 67.3606424 -7.0625 67.0625 C-7.784375 66.60875 -8.50625 66.155 -9.25 65.6875 C-11.74740543 64.24455464 -13.83673037 63.42136605 -16.5625 62.5625 C-20.052999 61.44950282 -23.08825771 60.26919589 -26.0625 58.0625 C-26.0625 57.4025 -26.0625 56.7425 -26.0625 56.0625 C-26.76375 55.959375 -27.465 55.85625 -28.1875 55.75 C-31.45387647 54.96890997 -34.1096852 53.64191257 -37.0625 52.0625 C-37.0625 51.4025 -37.0625 50.7425 -37.0625 50.0625 C-38.09375 49.815 -39.125 49.5675 -40.1875 49.3125 C-44.00687316 48.22675077 -46.83003243 46.38144412 -50.0625 44.0625 C-51.72198148 43.05062105 -53.38830562 42.0498454 -55.0625 41.0625 C-57.77638813 39.4470904 -60.43371728 37.81502181 -63.0625 36.0625 C-63.0625 35.4025 -63.0625 34.7425 -63.0625 34.0625 C-62.423125 33.93875 -61.78375 33.815 -61.125 33.6875 C-60.444375 33.48125 -59.76375 33.275 -59.0625 33.0625 C-58.7325 32.4025 -58.4025 31.7425 -58.0625 31.0625 C-56.7425 31.0625 -55.4225 31.0625 -54.0625 31.0625 C-53.69125 29.886875 -53.69125 29.886875 -53.3125 28.6875 C-51.8800952 25.67944992 -51.0315761 25.30759643 -48.0625 24.0625 C-47.7325 23.4025 -47.4025 22.7425 -47.0625 22.0625 C-45.42016602 21.10107422 -45.42016602 21.10107422 -43.31640625 20.1171875 C-42.18428711 19.58544922 -42.18428711 19.58544922 -41.02929688 19.04296875 C-40.23587891 18.67816406 -39.44246094 18.31335938 -38.625 17.9375 C-37.83544922 17.56496094 -37.04589844 17.19242187 -36.23242188 16.80859375 C-30.33284684 14.0625 -30.33284684 14.0625 -28.0625 14.0625 C-28.0625 13.4025 -28.0625 12.7425 -28.0625 12.0625 C-26.7425 12.0625 -25.4225 12.0625 -24.0625 12.0625 C-24.0625 11.4025 -24.0625 10.7425 -24.0625 10.0625 C-22.4125 9.7325 -20.7625 9.4025 -19.0625 9.0625 C-19.0625 8.4025 -19.0625 7.7425 -19.0625 7.0625 C-16.51884852 6.04229446 -13.97345117 5.0275918 -11.421875 4.02734375 C-10.56078125 3.68832031 -9.6996875 3.34929687 -8.8125 3 C-7.94109375 2.65839844 -7.0696875 2.31679688 -6.171875 1.96484375 C-1.65782424 0.03383315 -1.65782424 0.03383315 0 0 Z " fill="#F2B265" transform="translate(164.0625,322.9375)"/>
<path d="M0 0 C0.66 0 1.32 0 2 0 C2 104.94 2 209.88 2 318 C1.01 317.67 0.02 317.34 -1 317 C-1.02286476 276.76049076 -1.0404974 236.52098236 -1.05106533 196.28146792 C-1.05231611 191.53603394 -1.05361042 186.79059997 -1.05493164 182.04516602 C-1.05519395 181.10039406 -1.05545626 180.1556221 -1.05572652 179.18222069 C-1.06008356 163.8636931 -1.06797129 148.54516924 -1.0771528 133.22664387 C-1.08648839 117.52059692 -1.09205541 101.81455194 -1.09408849 86.10850233 C-1.09546392 76.408916 -1.09981555 66.70934023 -1.10791647 57.00975715 C-1.11318277 50.36778603 -1.11480456 43.72582041 -1.11350138 37.08384735 C-1.11285781 33.2458362 -1.11387755 29.40784356 -1.11920547 25.56983566 C-1.12492618 21.41882365 -1.12300124 17.26785157 -1.12025452 13.11683655 C-1.12462378 11.27689632 -1.12462378 11.27689632 -1.12908131 9.39978558 C-1.12709026 8.29704153 -1.12509921 7.19429748 -1.12304783 6.05813694 C-1.12342755 5.09858367 -1.12380727 4.13903039 -1.1241985 3.15039974 C-1 1 -1 1 0 0 Z " fill="#42362B" transform="translate(425,168)"/>
<path d="M0 0 C2.02045442 0.60183749 4.02111039 1.27306096 6 2 C6.33 2.66 6.66 3.32 7 4 C7.83276286 4.42637882 8.66552571 4.85275764 9.52352381 5.29205704 C12 7 12 7 12.62444448 9.40816879 C12.62403591 10.8530335 12.62403591 10.8530335 12.62361908 12.3270874 C12.63542442 13.43893024 12.64722976 14.55077309 12.65939283 15.69630814 C12.64687499 16.92284481 12.63435714 18.14938148 12.62145996 19.41308594 C12.62784878 20.71210217 12.6342376 22.01111839 12.64082003 23.34949875 C12.65786719 26.96287112 12.64359251 30.57555408 12.62430525 34.18889046 C12.60891873 38.08261982 12.62226958 41.97626245 12.63204956 45.86999512 C12.64659967 53.5008121 12.63431855 61.13136366 12.61293632 68.76215553 C12.58896351 77.64235223 12.59063839 86.52248762 12.59324223 95.40270948 C12.59693512 111.24378866 12.57608349 127.0847425 12.54199219 142.92578125 C12.50889908 158.30862598 12.49473357 173.69133914 12.50097656 189.07421875 C12.50773595 205.8119222 12.50529319 222.54957048 12.48561716 239.28726578 C12.48457768 240.1718167 12.48353819 241.05636763 12.4824672 241.96772313 C12.48037626 243.74446275 12.47826528 245.52120235 12.47613403 247.29794192 C12.46922958 253.49269997 12.46857059 259.68744106 12.47001648 265.88220215 C12.47145411 273.42819218 12.46180345 280.97407473 12.43807012 288.52002907 C12.42618522 292.37252268 12.41910141 296.22486621 12.42490768 300.07737732 C12.43100691 304.24737815 12.41396217 308.41695476 12.39440918 312.58691406 C12.39973711 313.81345074 12.40506503 315.03998741 12.41055441 316.30369186 C12.40149777 317.41553471 12.39244113 318.52737755 12.38311005 319.6729126 C12.38075324 321.11777731 12.38075324 321.11777731 12.37834883 322.59183121 C11.9316234 325.43521321 11.25318494 326.2725047 9 328 C6.73828125 329.16796875 6.73828125 329.16796875 4.3125 330.1875 C3.50425781 330.53167969 2.69601562 330.87585938 1.86328125 331.23046875 C1.24839844 331.48441406 0.63351562 331.73835938 0 332 C0.33 331.01 0.66 330.02 1 329 C4.96 327.02 4.96 327.02 9 325 C9 219.73 9 114.46 9 6 C7.68 5.67 6.36 5.34 5 5 C2.25 2.4375 2.25 2.4375 0 0 Z " fill="#B69854" transform="translate(545,161)"/>
<path d="M0 0 C0.66 0 1.32 0 2 0 C2 74.25 2 148.5 2 225 C1.01 224.67 0.02 224.34 -1 224 C-1.02332521 194.94168325 -1.04097731 165.88336789 -1.05181217 136.82504368 C-1.05283207 134.14304669 -1.05387339 131.46104971 -1.05493164 128.77905273 C-1.05519395 128.11240795 -1.05545626 127.44576317 -1.05572652 126.75891703 C-1.06008323 115.95079081 -1.06797078 105.14266988 -1.0771528 94.33454681 C-1.08648931 83.25251093 -1.0919807 72.17047721 -1.09408849 61.0884375 C-1.09539602 54.86042666 -1.09848449 48.63242785 -1.10573006 42.40442085 C-1.11248642 36.54981925 -1.11461775 30.6952347 -1.11310768 24.84062958 C-1.11338418 22.68505956 -1.11539157 20.52948901 -1.11920547 18.37392235 C-1.12413673 15.44465915 -1.1230004 12.51546143 -1.12025452 9.5861969 C-1.12316736 8.72142827 -1.1260802 7.85665964 -1.12908131 6.9656859 C-1.11412121 1.11412121 -1.11412121 1.11412121 0 0 Z " fill="#43362B" transform="translate(256,261)"/>
<path d="M0 0 C0.99 0.33 1.98 0.66 3 1 C2.99848112 1.6692435 2.99696224 2.338487 2.99539733 3.02801061 C2.90594019 42.66782404 2.83728171 82.30762448 2.79573868 121.94751836 C2.79073569 126.70410746 2.78555841 131.46069636 2.78027344 136.21728516 C2.7792242 137.1642608 2.77817495 138.11123644 2.77709392 139.08690831 C2.7596752 154.43253834 2.72812945 169.77810861 2.69138882 185.12370315 C2.65402017 200.86253145 2.63177279 216.60132839 2.62364602 232.34019923 C2.61814977 242.05673608 2.6007728 251.77310402 2.56833413 261.48958889 C2.54723654 268.14701758 2.54078913 274.80435859 2.54599449 281.46181831 C2.54856372 285.30638569 2.54454722 289.15065733 2.5231781 292.9951725 C2.50020546 297.15845562 2.50801886 301.3211043 2.51898193 305.48443604 C2.50733057 306.70621528 2.4956792 307.92799452 2.48367476 309.18679738 C2.49562106 310.85509827 2.49562106 310.85509827 2.50780869 312.5571022 C2.5062898 313.51855408 2.50477092 314.48000596 2.50320601 315.47059274 C3.14965705 318.76197306 4.41546588 319.92669137 7 322 C9.97503122 323.15835673 9.97503122 323.15835673 13 324 C14.34721283 324.63815344 15.68747118 325.29325371 17 326 C17 326.66 17 327.32 17 328 C10.5931061 326.39827653 3.7932141 324.68982116 0 319 C-0.24839699 316.58196718 -0.24839699 316.58196718 -0.24609566 313.64891529 C-0.25007775 312.53173896 -0.25405985 311.41456262 -0.25816262 310.26353246 C-0.25233693 309.03105848 -0.24651125 307.7985845 -0.24050903 306.52876282 C-0.24221788 305.22354634 -0.24392673 303.91832986 -0.24568737 302.57356137 C-0.25017112 298.94319325 -0.24214318 295.31294256 -0.23213124 291.68258941 C-0.22351379 287.77054013 -0.22641569 283.85849775 -0.22793579 279.94644165 C-0.22898572 273.16604855 -0.22269782 266.38569387 -0.21146011 259.60531044 C-0.19522274 249.80195656 -0.18999892 239.9986213 -0.18748413 230.19525542 C-0.18310425 214.29088565 -0.16978723 198.38653637 -0.15087891 182.48217773 C-0.13252767 167.03035586 -0.11836747 151.57853955 -0.10986328 136.12670898 C-0.10933783 135.17464557 -0.10881239 134.22258215 -0.10827102 133.24166832 C-0.10566099 128.46556153 -0.10313356 123.6894547 -0.10064721 118.91334784 C-0.0799056 79.27555088 -0.04467212 39.63777679 0 0 Z " fill="#BC814E" transform="translate(427,167)"/>
<path d="M0 0 C0.66 0 1.32 0 2 0 C2.045736 40.73205955 2.08099811 81.46411576 2.10213066 122.19619583 C2.1046322 127.00042617 2.10722083 131.80465646 2.10986328 136.60888672 C2.1103879 137.56535882 2.11091252 138.52183093 2.11145304 139.50728704 C2.12016558 155.0126742 2.1359402 170.51804658 2.15430559 186.02342497 C2.17298107 201.92270818 2.18411173 217.82198363 2.18817699 233.72127736 C2.19092695 243.53910581 2.1996254 253.35689253 2.21583293 263.17470814 C2.22637081 269.89892025 2.22960792 276.62311066 2.22700275 283.34733044 C2.22571645 287.23206803 2.22774578 291.11673249 2.23841095 295.00145721 C2.24986691 299.2047045 2.24599855 303.40779425 2.24050903 307.61105347 C2.24633472 308.85033124 2.2521604 310.08960901 2.25816262 311.36644065 C2.25418052 312.48510934 2.25019842 313.60377802 2.24609566 314.75634575 C2.2468551 315.72767035 2.24761454 316.69899496 2.24839699 317.69975364 C2 320 2 320 0 322 C-2.0234375 322.81640625 -2.0234375 322.81640625 -4.375 323.5625 C-5.14585937 323.81128906 -5.91671875 324.06007813 -6.7109375 324.31640625 C-8.79652769 324.93923609 -10.88370718 325.49266953 -13 326 C-10.82830512 323.60976978 -8.7918773 322.24194988 -5.875 320.875 C-3.24117764 319.71869993 -3.24117764 319.71869993 -1 318 C-0.89772003 316.30599812 -0.86600628 314.60770868 -0.8613348 312.91062832 C-0.85586036 311.80091748 -0.85038591 310.69120664 -0.84474558 309.54786819 C-0.84376747 308.31345948 -0.84278936 307.07905076 -0.84178162 305.80723572 C-0.83684364 304.50781164 -0.83190566 303.20838757 -0.82681805 301.869587 C-0.81318325 298.24614908 -0.80580322 294.62272057 -0.79939139 290.99926364 C-0.79141079 287.09807464 -0.77770502 283.19690542 -0.76467896 279.29573059 C-0.74288287 272.53114882 -0.72474989 265.76656509 -0.70907402 259.00196648 C-0.68640384 249.22137844 -0.65825711 239.44081227 -0.62875474 229.66024274 C-0.58104378 213.79360571 -0.53778913 197.92695976 -0.49731445 182.06030273 C-0.45797733 166.64330348 -0.41655541 151.22631217 -0.37231445 135.80932617 C-0.36959018 134.8597243 -0.36686591 133.91012243 -0.36405908 132.93174475 C-0.3503799 128.16808062 -0.33665957 123.40441662 -0.32291877 118.64075267 C-0.20889897 79.09385161 -0.10210182 39.54693352 0 0 Z " fill="#514832" transform="translate(557,168)"/>
<path d="M0 0 C1.98 0.66 3.96 1.32 6 2 C6 76.58 6 151.16 6 228 C5.34 228 4.68 228 4 228 C3.67 153.42 3.34 78.84 3 2 C2.01 1.67 1.02 1.34 0 1 C0 0.67 0 0.34 0 0 Z " fill="#74643F" transform="translate(383,259)"/>
<path d="M0 0 C2.0625 0.4375 2.0625 0.4375 4 1 C3.01 2.485 3.01 2.485 2 4 C-1.3 4.66 -4.6 5.32 -8 6 C-7.67 49.23 -7.34 92.46 -7 137 C-5.35 137.66 -3.7 138.32 -2 139 C-0.57430116 139.64712572 0.84321925 140.3127178 2.25 141 C2.93578125 141.33 3.6215625 141.66 4.328125 142 C6 143 6 143 7 145 C9.04489904 146.05591481 9.04489904 146.05591481 11.4375 147 C14.22906973 148.14709767 15.84618666 148.84618666 18 151 C15.36 150.67 12.72 150.34 10 150 C9.67 149.01 9.34 148.02 9 147 C7.67511887 146.63451555 6.33981486 146.3062434 5 146 C4.38125 145.525625 3.7625 145.05125 3.125 144.5625 C0.5459236 142.6661203 -1.9562455 141.95117328 -5 141 C-7.3125 140.0625 -7.3125 140.0625 -9 139 C-10.01225267 135.96324198 -10.12571761 133.93172616 -10.12698364 130.75535583 C-10.12980347 129.66869629 -10.13262329 128.58203674 -10.13552856 127.46244812 C-10.13350433 126.27013077 -10.1314801 125.07781342 -10.12939453 123.84936523 C-10.13114685 122.59392914 -10.13289917 121.33849304 -10.13470459 120.04501343 C-10.13926683 116.60094195 -10.13749444 113.1569004 -10.1343255 109.7128284 C-10.13179623 106.11161642 -10.13414098 102.51040702 -10.13571167 98.90919495 C-10.13753147 92.86239155 -10.13513178 86.81560037 -10.13037109 80.76879883 C-10.12492638 73.7722515 -10.12669341 66.77573329 -10.1321975 59.77918667 C-10.13673109 53.7765943 -10.13737804 47.77401072 -10.13475883 41.7714172 C-10.13319773 38.18428607 -10.13299778 34.59716864 -10.13629532 31.01003838 C-10.13971233 27.01376075 -10.13498027 23.01751593 -10.12939453 19.02124023 C-10.13243088 17.22972786 -10.13243088 17.22972786 -10.13552856 15.40202332 C-10.13270874 14.31818359 -10.12988892 13.23434387 -10.12698364 12.11766052 C-10.12660662 11.1721102 -10.12622959 10.22655989 -10.12584114 9.25235653 C-10 7 -10 7 -9 5 C-7.1875 3.96484375 -7.1875 3.96484375 -5 2.9375 C-2.30092276 1.75531476 -2.30092276 1.75531476 0 0 Z " fill="#B07B4B" transform="translate(108,350)"/>
<path d="M0 0 C0.33 0 0.66 0 1 0 C1.33 103.29 1.66 206.58 2 313 C3.98 313 5.96 313 8 313 C8 312.34 8 311.68 8 311 C9.32 311.33 10.64 311.66 12 312 C11.01 312 10.02 312 9 312 C9 312.66 9 313.32 9 314 C5.53785351 316.05164237 4.40610765 316 0 316 C0 211.72 0 107.44 0 0 Z " fill="#E9B161" transform="translate(491,205)"/>
<path d="M0 0 C-2.94117625 3.80622809 -4.64576667 3.47021905 -10 5 C-10 108.62 -10 212.24 -10 319 C-10.33 319 -10.66 319 -11 319 C-11.18302459 278.95606388 -11.32403325 238.91218217 -11.40852264 198.86791151 C-11.41852855 194.14265321 -11.4288831 189.41739574 -11.43945312 184.69213867 C-11.44155161 183.75140657 -11.44365009 182.81067447 -11.44581217 181.84143534 C-11.4806433 166.59984909 -11.54373105 151.35850371 -11.61722237 136.11706046 C-11.69197772 120.48332978 -11.73645815 104.84972543 -11.75270796 89.21582335 C-11.76369694 79.56509165 -11.79842982 69.91504067 -11.86333174 60.26451846 C-11.90554963 53.65094387 -11.91841687 47.03772228 -11.90801102 40.42402265 C-11.9028756 36.60530855 -11.91086388 32.78778557 -11.9536438 28.96928215 C-11.99965715 24.83203414 -11.98394941 20.69733539 -11.96203613 16.55989075 C-11.99699023 14.74326399 -11.99699023 14.74326399 -12.03265047 12.8899377 C-11.91932804 5.01259234 -11.91932804 5.01259234 -9.26012325 2.08361566 C-4.11218779 -1.37072926 -4.11218779 -1.37072926 0 0 Z " fill="#F2C267" transform="translate(503,200)"/>
<path d="M0 0 C0.33 0 0.66 0 1 0 C1 74.58 1 149.16 1 226 C0.67 226 0.34 226 0 226 C0 151.42 0 76.84 0 0 Z M0 227 C-2.30389824 229.30389824 -3.12854212 229.32941723 -6.25 229.8125 C-11.11693311 230.77493211 -13.37024989 232.71594037 -17 236 C-17.99 236 -18.98 236 -20 236 C-20 236.99 -20 237.98 -20 239 C-21.65 239 -23.3 239 -25 239 C-25.33 239.99 -25.66 240.98 -26 242 C-26.99 242 -27.98 242 -29 242 C-29 242.66 -29 243.32 -29 244 C-31.31 244.33 -33.62 244.66 -36 245 C-33.40391765 241.10587648 -31.39617236 241.23401329 -27 240 C-25.35405861 238.60411246 -25.35405861 238.60411246 -24 237 C-22.700625 236.2265625 -22.700625 236.2265625 -21.375 235.4375 C-18.88809625 234.22087094 -18.88809625 234.22087094 -18 232 C-15.0652503 230.65160149 -12.14952839 229.6998952 -9 229 C-9 228.34 -9 227.68 -9 227 C-3.375 225.875 -3.375 225.875 0 227 Z " fill="#363229" transform="translate(389,261)"/>
<path d="M0 0 C0.66 0.33 1.32 0.66 2 1 C2 44.23 2 87.46 2 132 C1.01 131.67 0.02 131.34 -1 131 C-1.02332869 114.06737796 -1.04097903 97.13476092 -1.05181217 80.2021265 C-1.05697519 72.34055609 -1.06401801 64.47899565 -1.07543945 56.61743164 C-1.0853861 49.76774525 -1.09185338 42.91806608 -1.09408849 36.06837267 C-1.09539563 32.43930604 -1.09848169 28.81026006 -1.10573006 25.18120003 C-1.11374356 21.13649696 -1.11399115 17.09183011 -1.11352539 13.04711914 C-1.11712067 11.83511841 -1.12071594 10.62311768 -1.12442017 9.37438965 C-1.1230455 8.27917496 -1.12167084 7.18396027 -1.12025452 6.05555725 C-1.12117631 5.09781434 -1.1220981 4.14007143 -1.12304783 3.15330601 C-1 1 -1 1 0 0 Z " fill="#4B3B2D" transform="translate(97,356)"/>
<path d="M0 0 C3.73487777 0.4979837 5.81237635 0.87491756 9 3 C9.30644894 5.94496051 9.41546381 8.68180964 9.39872742 11.63052368 C9.40537424 12.5346976 9.41202107 13.43887152 9.41886932 14.37044466 C9.43761139 17.41846229 9.43488652 20.46609125 9.43237305 23.51416016 C9.44138337 25.69177307 9.45170877 27.86938088 9.46325684 30.04698181 C9.49093868 35.97437352 9.5001265 41.9016693 9.50611091 47.8291173 C9.51546557 54.0178209 9.54166647 60.20645202 9.56611633 66.39511108 C9.60737563 77.45394274 9.63579529 88.51275788 9.657486 99.57164399 C9.68516313 113.58583743 9.73009237 127.59994256 9.77772844 141.61408162 C9.87069496 169.0760151 9.94232062 196.53797135 10 224 C11.98 224 13.96 224 16 224 C16 223.34 16 222.68 16 222 C17.32 222.33 18.64 222.66 20 223 C19.01 223 18.02 223 17 223 C17 223.66 17 224.32 17 225 C13.53785351 227.05164237 12.40610765 227 8 227 C8 153.41 8 79.82 8 4 C6.35 3.67 4.7 3.34 3 3 C1.1875 1.4375 1.1875 1.4375 0 0 Z " fill="#E8AE5F" transform="translate(314,294)"/>
<path d="M0 0 C4.23429756 1.31061591 8.07407404 2.94356259 12 5 C12 5.66 12 6.32 12 7 C13.32 7.33 14.64 7.66 16 8 C16 8.66 16 9.32 16 10 C16.7425 10.12375 17.485 10.2475 18.25 10.375 C20.80141485 10.95486701 22.7267573 11.73708739 25 13 C25 13.66 25 14.32 25 15 C26.11375 15.1546875 26.11375 15.1546875 27.25 15.3125 C30.21804151 16.05451038 31.58725413 17.1904406 34 19 C35.65779401 19.37497722 37.32465952 19.7134286 39 20 C39.02332844 37.45415735 39.0409789 54.90830985 39.05181217 72.36247921 C39.05697525 80.46618609 39.06401816 88.56988331 39.07543945 96.67358398 C39.08538594 103.73422122 39.09185334 110.79485146 39.09408849 117.85549551 C39.09539566 121.59634458 39.09848189 125.33717362 39.10573006 129.07801628 C39.11374324 133.24725113 39.11399116 137.41645084 39.11352539 141.58569336 C39.11712067 142.83509705 39.12071594 144.08450073 39.12442017 145.37176514 C39.1230455 146.50063644 39.12167084 147.62950775 39.12025452 148.79258728 C39.12117631 149.77982757 39.1220981 150.76706785 39.12304783 151.78422451 C39 154 39 154 38 155 C36.33382885 155.04063832 34.66611905 155.042721 33 155 C33 155.66 33 156.32 33 157 C31.35 157.33 29.7 157.66 28 158 C30.11331152 155.73014688 31.81466579 154.09282626 34.60695171 152.69428539 C37.21555897 151.2348185 37.21555897 151.2348185 37.61523914 148.60059834 C37.61063018 147.64469901 37.60602121 146.68879969 37.60127258 145.70393372 C37.6081459 144.6059697 37.61501923 143.50800568 37.62210083 142.37677002 C37.60412445 141.17195984 37.58614807 139.96714966 37.56762695 138.72583008 C37.56872215 136.8232267 37.56872215 136.8232267 37.56983948 134.88218689 C37.5712757 131.40278343 37.54185433 127.9242396 37.50696969 124.44503617 C37.47573959 120.80956761 37.47277813 117.17407993 37.46684265 113.53849792 C37.45129422 106.65354345 37.41025271 99.76898535 37.3600952 92.88420552 C37.30423244 85.04637256 37.27672304 77.20852079 37.25161803 69.37053835 C37.19933733 53.24679343 37.11137619 37.12344727 37 21 C36.23300781 20.85691406 35.46601563 20.71382813 34.67578125 20.56640625 C31.94687839 19.98875528 29.55896641 19.09669989 27 18 C27 17.34 27 16.68 27 16 C25.68 15.67 24.36 15.34 23 15 C23 14.34 23 13.68 23 13 C21.35 13 19.7 13 18 13 C18 12.34 18 11.68 18 11 C17.278125 11.103125 16.55625 11.20625 15.8125 11.3125 C11.85355067 10.87261674 10.71431528 8.84356839 8 6 C6.7743039 5.23068011 5.52290244 4.50090642 4.25 3.8125 C1 2 1 2 0 0 Z " fill="#554B33" transform="translate(190,335)"/>
<path d="M0 0 C2.0625 0.4375 2.0625 0.4375 4 1 C3.01 2.485 3.01 2.485 2 4 C-1.3 4.66 -4.6 5.32 -8 6 C-8.33 48.9 -8.66 91.8 -9 136 C-9.33 136 -9.66 136 -10 136 C-10.02333718 119.21503252 -10.04098321 102.43007008 -10.05181217 85.6450901 C-10.05697338 77.85192956 -10.06401277 70.05877908 -10.07543945 62.265625 C-10.08539161 55.47489267 -10.0918547 48.68416763 -10.09408849 41.89342821 C-10.09539469 38.29618768 -10.09847484 34.69896802 -10.10573006 31.10173416 C-10.11375448 27.09076249 -10.11399079 23.07982732 -10.11352539 19.06884766 C-10.11712067 17.86979294 -10.12071594 16.67073822 -10.12442017 15.43534851 C-10.1230455 14.34717331 -10.12167084 13.25899811 -10.12025452 12.1378479 C-10.12117631 11.18840113 -10.1220981 10.23895435 -10.12304783 9.26073647 C-10 7 -10 7 -9 5 C-7.1875 3.96484375 -7.1875 3.96484375 -5 2.9375 C-2.30092276 1.75531476 -2.30092276 1.75531476 0 0 Z " fill="#906742" transform="translate(108,350)"/>
<path d="M0 0 C2.75619881 1.17706588 5.36984846 2.56623508 8 4 C8.81726563 4.43054688 9.63453125 4.86109375 10.4765625 5.3046875 C16.86645879 8.73291757 16.86645879 8.73291757 18 11 C13.52761347 9.58192622 9.28853694 7.88695626 5 6 C5 5.34 5 4.68 5 4 C3.35 4 1.7 4 0 4 C0 3.34 0 2.68 0 2 C-5.3086849 2.58174845 -5.3086849 2.58174845 -10 5 C-11.66249262 5.67700849 -13.329583 6.34278675 -15 7 C-16.65367373 7.81766435 -18.29955362 8.65126949 -19.9375 9.5 C-23.55933764 11.33528096 -27.08704898 12.86730365 -31 14 C-28.92844785 10.89267177 -28.17967766 10.39088998 -24.9375 8.9375 C-21.82365427 7.66733661 -21.82365427 7.66733661 -20 5 C-17.85546875 4 -17.85546875 4 -15.1875 3 C-12.66410945 2.04580801 -10.23584676 1.12412987 -7.84765625 -0.1328125 C-4.93202242 -1.50124952 -3.0730242 -0.82735267 0 0 Z " fill="#9C7649" transform="translate(327,227)"/>
<path d="M0 0 C3.91259689 0.54341623 5.88773176 1.66579882 9 4 C11.64934822 4.71433121 11.64934822 4.71433121 14 5 C14 5.66 14 6.32 14 7 C14.7425 7.12375 15.485 7.2475 16.25 7.375 C18.80141485 7.95486701 20.7267573 8.73708739 23 10 C23 10.99 23 11.98 23 13 C24.74906659 13.19601608 26.49931846 13.38147403 28.25 13.5625 C29.22453125 13.66691406 30.1990625 13.77132812 31.203125 13.87890625 C33.7631352 13.98974468 35.58148159 13.77738092 38 13 C38 12.34 38 11.68 38 11 C38.66 11.33 39.32 11.66 40 12 C38.5625 14.5 38.5625 14.5 36 17 C32.23150263 17.6291985 28.4552827 17.72764135 25 16 C25 15.34 25 14.68 25 14 C24.278125 14.103125 23.55625 14.20625 22.8125 14.3125 C19.45329688 13.93925521 18.81631248 12.88134514 16.6640625 10.4375 C13.67033683 7.85137079 9.9567613 6.60257449 6.328125 5.11328125 C4 4 4 4 3 2 C2.01 1.34 1.02 0.68 0 0 Z " fill="#9F6F46" transform="translate(462,506)"/>
<path d="M0 0 C4.23429756 1.31061591 8.07407404 2.94356259 12 5 C12 5.66 12 6.32 12 7 C13.32 7.33 14.64 7.66 16 8 C16 8.66 16 9.32 16 10 C16.7425 10.12375 17.485 10.2475 18.25 10.375 C20.80141485 10.95486701 22.7267573 11.73708739 25 13 C25 13.66 25 14.32 25 15 C26.0828125 15.0928125 26.0828125 15.0928125 27.1875 15.1875 C30.84657625 16.24456647 32.49211602 18.20550071 35 21 C29.25 19.125 29.25 19.125 27 18 C27 17.34 27 16.68 27 16 C25.68 15.67 24.36 15.34 23 15 C23 14.34 23 13.68 23 13 C21.35 13 19.7 13 18 13 C18 12.34 18 11.68 18 11 C17.278125 11.103125 16.55625 11.20625 15.8125 11.3125 C11.85355067 10.87261674 10.71431528 8.84356839 8 6 C6.7743039 5.23068011 5.52290244 4.50090642 4.25 3.8125 C1 2 1 2 0 0 Z " fill="#8A6A43" transform="translate(190,335)"/>
<path d="M0 0 C1.32 0.33 2.64 0.66 4 1 C3.01 1 2.02 1 1 1 C1 1.66 1 2.32 1 3 C-1.59291897 5.31510622 -3.67573865 6.19759209 -7 7 C-7.33 7.66 -7.66 8.32 -8 9 C-8.94875 9.309375 -9.8975 9.61875 -10.875 9.9375 C-13.94755968 10.7036416 -13.94755968 10.7036416 -15.37109375 12.4921875 C-17.53414546 14.4944368 -19.30631783 14.70106665 -22.1875 15.1875 C-23.08855469 15.34605469 -23.98960938 15.50460937 -24.91796875 15.66796875 C-25.60503906 15.77753906 -26.29210937 15.88710938 -27 16 C-27.33 16.99 -27.66 17.98 -28 19 C-29.65 19.33 -31.3 19.66 -33 20 C-32 18 -32 18 -29 17 C-28.67 16.34 -28.34 15.68 -28 15 C-26.35766602 14.03857422 -26.35766602 14.03857422 -24.25390625 13.0546875 C-23.49916016 12.70019531 -22.74441406 12.34570312 -21.96679688 11.98046875 C-20.77666992 11.43326172 -20.77666992 11.43326172 -19.5625 10.875 C-18.77294922 10.50246094 -17.98339844 10.12992187 -17.16992188 9.74609375 C-11.27034684 7 -11.27034684 7 -9 7 C-9 6.34 -9 5.68 -9 5 C-7.68 5 -6.36 5 -5 5 C-5 4.34 -5 3.68 -5 3 C-3.35 2.67 -1.7 2.34 0 2 C0 1.34 0 0.68 0 0 Z " fill="#B18450" transform="translate(145,330)"/>
<path d="M0 0 C2.475 0.495 2.475 0.495 5 1 C5 1.66 5 2.32 5 3 C9.455 3.99 9.455 3.99 14 5 C14 5.99 14 6.98 14 8 C14.680625 8.0825 15.36125 8.165 16.0625 8.25 C19.79568619 9.20315392 22.74563509 11.01502408 26 13 C26.87011719 13.50402344 27.74023438 14.00804687 28.63671875 14.52734375 C29.54035156 15.05457031 30.44398438 15.58179688 31.375 16.125 C32.22835937 16.62257813 33.08171875 17.12015625 33.9609375 17.6328125 C36 19 36 19 37 21 C32.31327468 19.67810311 28.38746615 17.64196457 24.19140625 15.2421875 C21.51111152 13.72287605 18.76924933 12.34912147 16 11 C16 10.34 16 9.68 16 9 C14.68 8.67 13.36 8.34 12 8 C12 7.34 12 6.68 12 6 C11.2575 5.87625 10.515 5.7525 9.75 5.625 C7.19858515 5.04513299 5.2732427 4.26291261 3 3 C3 2.34 3 1.68 3 1 C2.01 0.67 1.02 0.34 0 0 Z " fill="#8B6340" transform="translate(270,493)"/>
<path d="M0 0 C0.845625 0.474375 1.69125 0.94875 2.5625 1.4375 C2.5625 2.0975 2.5625 2.7575 2.5625 3.4375 C3.28953125 3.55222656 4.0165625 3.66695313 4.765625 3.78515625 C7.64327291 4.45633949 9.74852416 5.42523514 12.3125 6.875 C13.09109375 7.30683594 13.8696875 7.73867188 14.671875 8.18359375 C16.5625 9.4375 16.5625 9.4375 17.5625 11.4375 C13.09011347 10.01942622 8.85103694 8.32445626 4.5625 6.4375 C4.5625 5.7775 4.5625 5.1175 4.5625 4.4375 C3.2425 4.1075 1.9225 3.7775 0.5625 3.4375 C0.5625 2.7775 0.5625 2.1175 0.5625 1.4375 C-1.0875 1.4375 -2.7375 1.4375 -4.4375 1.4375 C-4.4375 0.7775 -4.4375 0.1175 -4.4375 -0.5625 C-5.448125 -0.27375 -6.45875 0.015 -7.5 0.3125 C-11.14583333 1.35416667 -14.79166667 2.39583333 -18.4375 3.4375 C-17.4375 1.4375 -17.4375 1.4375 -14.4375 0.4375 C-14.1075 -0.2225 -13.7775 -0.8825 -13.4375 -1.5625 C-8.53644045 -3.19618652 -4.62745354 -2.10338797 0 0 Z " fill="#8A6A44" transform="translate(171.4375,323.5625)"/>
<path d="M0 0 C1.32 0.33 2.64 0.66 4 1 C2 3 2 3 -0.3125 3.875 C-3.14181613 4.91182704 -3.14181613 4.91182704 -5.625 7.125 C-8 9 -8 9 -11 9 C-11 9.99 -11 10.98 -11 12 C-12.65 12 -14.3 12 -16 12 C-16.33 12.99 -16.66 13.98 -17 15 C-17.99 15 -18.98 15 -20 15 C-20 15.66 -20 16.32 -20 17 C-22.31 17.33 -24.62 17.66 -27 18 C-24.40391765 14.10587648 -22.39617236 14.23401329 -18 13 C-16.35405861 11.60411246 -16.35405861 11.60411246 -15 10 C-13.700625 9.2265625 -13.700625 9.2265625 -12.375 8.4375 C-9.88809625 7.22087094 -9.88809625 7.22087094 -9 5 C-6.0652503 3.65160149 -3.14952839 2.6998952 0 2 C0 1.34 0 0.68 0 0 Z " fill="#6A5B3B" transform="translate(380,488)"/>
<path d="M0 0 C3.83696041 1.5987335 7.6300719 3.25763393 11.375 5.0625 C12.04273437 5.38347656 12.71046875 5.70445312 13.3984375 6.03515625 C15 7 15 7 16 9 C18.04489904 10.05591481 18.04489904 10.05591481 20.4375 11 C23.22906973 12.14709767 24.84618666 12.84618666 27 15 C24.36 14.67 21.72 14.34 19 14 C18.67 13.01 18.34 12.02 18 11 C16.67511887 10.63451555 15.33981486 10.3062434 14 10 C13.38125 9.525625 12.7625 9.05125 12.125 8.5625 C9.5459236 6.6661203 7.0437545 5.95117328 4 5 C2.65278717 4.36184656 1.31252882 3.70674629 0 3 C0 2.01 0 1.02 0 0 Z " fill="#7A593C" transform="translate(99,486)"/>
<path d="M0 0 C4.63381843 1.32394812 8.04584222 3.27602464 12 6 C12.99 6.33 13.98 6.66 15 7 C15.33 7.66 15.66 8.32 16 9 C16.99 9.33 17.98 9.66 19 10 C19.33 10.66 19.66 11.32 20 12 C21.88263881 12.90343684 21.88263881 12.90343684 24.0625 13.625 C24.79597656 13.88539063 25.52945312 14.14578125 26.28515625 14.4140625 C27.13400391 14.70410156 27.13400391 14.70410156 28 15 C24.68604014 16.08784335 24.16419665 16.07262544 20.75 14.5625 C19.8425 14.046875 18.935 13.53125 18 13 C18 12.34 18 11.68 18 11 C17.13375 10.8453125 17.13375 10.8453125 16.25 10.6875 C14 10 14 10 12.125 8.5625 C9.99755572 6.82080156 9.99755572 6.82080156 7 6.0625 C3.72736524 4.90344186 2.21000296 3.63500353 0 1 C0 0.67 0 0.34 0 0 Z " fill="#967247" transform="translate(355,243)"/>
<path d="M0 0 C5.75 1.875 5.75 1.875 8 3 C8 3.66 8 4.32 8 5 C9.33038449 5.3449145 10.66457061 5.67516582 12 6 C12.845625 6.226875 13.69125 6.45375 14.5625 6.6875 C17.25525964 7.30360761 17.25525964 7.30360761 20 5 C20.99 5 21.98 5 23 5 C23 4.34 23 3.68 23 3 C23.66 3.33 24.32 3.66 25 4 C23.6875 6.5 23.6875 6.5 21 9 C17.29998705 9.45251957 13.70986572 9.28783441 10 9 C9.67 8.01 9.34 7.02 9 6 C7.3364521 5.32558869 5.66933058 4.6599679 4 4 C1.6875 1.875 1.6875 1.875 0 0 Z " fill="#6C5439" transform="translate(308,514)"/>
<path d="M0 0 C0.66 0.33 1.32 0.66 2 1 C-0.29894474 3.29894474 -1.97533404 3.81643506 -5 5 C-8.82487619 6.80785164 -12.47597084 8.65064723 -16 11 C-16.99 11 -17.98 11 -19 11 C-19.33 11.99 -19.66 12.98 -20 14 C-21.32 13.67 -22.64 13.34 -24 13 C-23.01 12.67 -22.02 12.34 -21 12 C-20.67 11.34 -20.34 10.68 -20 10 C-19.01 9.67 -18.02 9.34 -17 9 C-16.67 8.34 -16.34 7.68 -16 7 C-14.66666667 6.66666667 -13.33333333 6.33333333 -12 6 C-11.67 5.34 -11.34 4.68 -11 4 C-8.75 3.18359375 -8.75 3.18359375 -6 2.4375 C-2.71746634 1.73509107 -2.71746634 1.73509107 0 0 Z " fill="#70583B" transform="translate(452,153)"/>
<path d="M0 0 C0.58007812 0.2165625 1.16015625 0.433125 1.7578125 0.65625 C7.77634297 2.80146878 12.72309594 3.93135509 19 2 C19 1.34 19 0.68 19 0 C19.66 0.33 20.32 0.66 21 1 C19.5625 3.5 19.5625 3.5 17 6 C13.23150263 6.6291985 9.4552827 6.72764135 6 5 C6 4.34 6 3.68 6 3 C4.35 3 2.7 3 1 3 C0.67 2.01 0.34 1.02 0 0 Z " fill="#6D5739" transform="translate(481,517)"/>
<path d="M0 0 C0.33 0.99 0.66 1.98 1 3 C0.34 3 -0.32 3 -1 3 C-1 2.34 -1 1.68 -1 1 C-2.65 1 -4.3 1 -6 1 C-6.33 1.99 -6.66 2.98 -7 4 C-8.65 4 -10.3 4 -12 4 C-12 4.66 -12 5.32 -12 6 C-17.41538462 9.07692308 -17.41538462 9.07692308 -20.375 8.6875 C-20.91125 8.460625 -21.4475 8.23375 -22 8 C-21.01 7.67 -20.02 7.34 -19 7 C-18.67 6.34 -18.34 5.68 -18 5 C-16.35008418 4.29289322 -14.6792238 3.63437344 -13 3 C-12.05125 2.46375 -11.1025 1.9275 -10.125 1.375 C-6.52488342 -0.20905129 -3.89166046 -0.23349963 0 0 Z " fill="#B48651" transform="translate(496,133)"/>
<path d="M0 0 C-4.14634902 4.97561882 -8.83414209 7.12934141 -15 9 C-15.99 9 -16.98 9 -18 9 C-15.427824 7.4566944 -12.85823981 5.91945444 -10.25 4.4375 C-7.88495578 3.19737444 -7.88495578 3.19737444 -7 1 C-2.44155844 -1.22077922 -2.44155844 -1.22077922 0 0 Z " fill="#9A7549" transform="translate(314,231)"/>
<path d="M0 0 C0 0.66 0 1.32 0 2 C-1.093125 2.12375 -2.18625 2.2475 -3.3125 2.375 C-7.07381802 2.75464801 -7.07381802 2.75464801 -10 5 C-12.1875 4.625 -12.1875 4.625 -14 4 C-5.92255125 -1.92482916 -5.92255125 -1.92482916 0 0 Z " fill="#C69357" transform="translate(327,227)"/>
<path d="M0 0 C5.41963293 2.13500691 10.82796044 4.31053943 16 7 C16 7.66 16 8.32 16 9 C10.75031324 7.68757831 5.50655911 6.08864173 1 3 C0.67 2.01 0.34 1.02 0 0 Z " fill="#A27147" transform="translate(428,486)"/>
<path d="M0 0 C-1.76537096 1.17491582 -3.53749713 2.33968684 -5.3125 3.5 C-6.29863281 4.1496875 -7.28476563 4.799375 -8.30078125 5.46875 C-11 7 -11 7 -14 7 C-14 7.66 -14 8.32 -14 9 C-14.66 8.67 -15.32 8.34 -16 8 C-15 6 -15 6 -12 5 C-11.67 4.34 -11.34 3.68 -11 3 C-9.66666667 2.66666667 -8.33333333 2.33333333 -7 2 C-6.67 1.34 -6.34 0.68 -6 0 C-2.49056604 -1.24528302 -2.49056604 -1.24528302 0 0 Z " fill="#BD9F56" transform="translate(227,487)"/>
<path d="M0 0 C4.23429756 1.31061591 8.07407404 2.94356259 12 5 C12 5.66 12 6.32 12 7 C13.32 7.33 14.64 7.66 16 8 C15.01 8.495 15.01 8.495 14 9 C11.25 7.890625 11.25 7.890625 8 6.25 C6.9275 5.71890625 5.855 5.1878125 4.75 4.640625 C2 3 2 3 0 0 Z " fill="#624E37" transform="translate(190,335)"/>
<path d="M0 0 C1.32 0.33 2.64 0.66 4 1 C2 3 2 3 -0.375 3.9375 C-3.049605 4.87616752 -3.049605 4.87616752 -5.125 6.6875 C-5.74375 7.120625 -6.3625 7.55375 -7 8 C-7.99 7.67 -8.98 7.34 -10 7 C-8.58970126 4.17940253 -6.92108419 4.01898286 -4 3 C-2.67323492 2.64141484 -1.34164079 2.2981424 0 2 C0 1.34 0 0.68 0 0 Z " fill="#A98F50" transform="translate(380,488)"/>
<path d="M0 0 C5.26170694 1.41167747 8.72171358 3.74850232 13 7 C12.01 7.33 11.02 7.66 10 8 C10 7.34 10 6.68 10 6 C8.35 6 6.7 6 5 6 C5 5.34 5 4.68 5 4 C4.360625 3.71125 3.72125 3.4225 3.0625 3.125 C1 2 1 2 0 0 Z " fill="#564131" transform="translate(449,499)"/>
<path d="M0 0 C2.31 0.33 4.62 0.66 7 1 C7.33 1.99 7.66 2.98 8 4 C9.65 4.33 11.3 4.66 13 5 C13 5.66 13 6.32 13 7 C10.97954558 6.39816251 8.97888961 5.72693904 7 5 C6.67 4.34 6.34 3.68 6 3 C4.02 3 2.04 3 0 3 C0 2.01 0 1.02 0 0 Z " fill="#E8A35E" transform="translate(260,264)"/>
<path d="M0 0 C0.66 0 1.32 0 2 0 C1.67 1.32 1.34 2.64 1 4 C-0.32 3.67 -1.64 3.34 -3 3 C-3 3.99 -3 4.98 -3 6 C-5.31 6.33 -7.62 6.66 -10 7 C-8.58985036 4.17970072 -6.77252431 3.41850081 -4 2 C-2.68 2 -1.36 2 0 2 C0 1.34 0 0.68 0 0 Z " fill="#C49256" transform="translate(285,246)"/>
<path d="M0 0 C4.28577219 -0.36539443 6.34492062 0.51576402 9.8125 3 C10.60269531 3.556875 11.39289063 4.11375 12.20703125 4.6875 C12.79871094 5.120625 13.39039063 5.55375 14 6 C10.44842089 6 8.51236245 5.00581762 5.3125 3.5 C4.31863281 3.0359375 3.32476562 2.571875 2.30078125 2.09375 C1.54152344 1.7328125 0.78226562 1.371875 0 1 C0 0.67 0 0.34 0 0 Z " fill="#7E5B3D" transform="translate(293,507)"/>
<path d="M0 0 C2.0625 0.4375 2.0625 0.4375 4 1 C3.01 1 2.02 1 1 1 C0.67 1.99 0.34 2.98 0 4 C-1.65 4 -3.3 4 -5 4 C-5 4.66 -5 5.32 -5 6 C-6.65 6.33 -8.3 6.66 -10 7 C-7.21098485 3.90109428 -4.92211279 2.37803963 -1 1 C-0.67 0.67 -0.34 0.34 0 0 Z " fill="#D0995A" transform="translate(448,156)"/>
<path d="M0 0 C-3.96 1.98 -7.92 3.96 -12 6 C-12.33 5.34 -12.66 4.68 -13 4 C-12.01 3.67 -11.02 3.34 -10 3 C-9.67 2.34 -9.34 1.68 -9 1 C-5.24224818 -0.92965634 -4.27809081 -1.0695227 0 0 Z " fill="#BFA157" transform="translate(184,512)"/>
<path d="M0 0 C1.32 0.33 2.64 0.66 4 1 C3.01 1 2.02 1 1 1 C1 1.66 1 2.32 1 3 C-2.08809695 4.76462683 -3.23312136 5 -7 5 C-6.67 4.01 -6.34 3.02 -6 2 C-4.02 2 -2.04 2 0 2 C0 1.34 0 0.68 0 0 Z " fill="#D3B05E" transform="translate(499,516)"/>
<path d="M0 0 C1.32 0.33 2.64 0.66 4 1 C3.01 1 2.02 1 1 1 C1 1.66 1 2.32 1 3 C-2.08809695 4.76462683 -3.23312136 5 -7 5 C-6.67 4.01 -6.34 3.02 -6 2 C-4.02 2 -2.04 2 0 2 C0 1.34 0 0.68 0 0 Z " fill="#D5B15E" transform="translate(330,516)"/>
<path d="M0 0 C0.33 0.99 0.66 1.98 1 3 C0.34 3 -0.32 3 -1 3 C-1 2.34 -1 1.68 -1 1 C-2.65 1 -4.3 1 -6 1 C-6.33 1.99 -6.66 2.98 -7 4 C-8.32 3.67 -9.64 3.34 -11 3 C-7.48550811 -0.37391222 -4.73940561 -0.27342725 0 0 Z " fill="#CD9859" transform="translate(496,133)"/>
<path d="M0 0 C0 0.99 0 1.98 0 3 C-4.625 5.125 -4.625 5.125 -8 4 C-6.4425489 0.88509781 -3.40085499 0 0 0 Z " fill="#5A5035" transform="translate(201,502)"/>
<path d="M0 0 C0.556875 0.226875 1.11375 0.45375 1.6875 0.6875 C0.6975 0.6875 -0.2925 0.6875 -1.3125 0.6875 C-1.6425 1.6775 -1.9725 2.6675 -2.3125 3.6875 C-3.6325 3.6875 -4.9525 3.6875 -6.3125 3.6875 C-6.3125 4.3475 -6.3125 5.0075 -6.3125 5.6875 C-7.3025 5.3575 -8.2925 5.0275 -9.3125 4.6875 C-8.6525 4.6875 -7.9925 4.6875 -7.3125 4.6875 C-7.3125 4.0275 -7.3125 3.3675 -7.3125 2.6875 C-3.15982824 -0.42700382 -3.15982824 -0.42700382 0 0 Z " fill="#E0A55F" transform="translate(468.3125,146.3125)"/>
</svg>
